<?xml version="1.0" standalone="no"?><!DOCTYPE svg PUBLIC "-//W3C//DTD SVG 1.1//EN" "http://www.w3.org/Graphics/SVG/1.1/DTD/svg11.dtd" ><svg xmlns="http://www.w3.org/2000/svg"><metadata></metadata><defs><font id="fonteditor" horiz-adv-x="512"><font-face font-family="lINêêTOS{" font-weight="400" font-stretch="normal" units-per-em="512" panose-1="2 1 6 4 0 1 1 1 1 1" ascent="409" descent="-102" x-height="1" bbox="5 -102 503 407" underline-thickness="0" underline-position="0" unicode-range="U+002a-ff01" /><missing-glyph horiz-adv-x="512"  /><glyph glyph-name="asterisk" unicode="*" d="M117 152 Q84 160 64 161.5 Q44 163 34 169.5 Q24 176 23.5 189 Q23 202 28 212 Q33 222 48 224 Q56 224 65 219.5 Q74 215 86.5 199.5 Q99 184 102 182 L123 159 Q120 175 117.5 182.5 Q115 190 106 210 Q97 230 96.5 242 Q96 254 102 262 Q105 266 111.5 270 Q118 274 128 274 Q135 273 140.5 270.5 Q146 268 151.5 261 Q157 254 157.5 244.5 Q158 235 153 222 L139 186 L132 158 Q152 179 163.5 193 Q175 207 179.5 211.5 Q184 216 190 220 Q196 224 203.5 224.5 Q211 225 219 221 Q224 217 228.5 209 Q233 201 233.5 192 Q234 183 230 177 Q226 171 214.5 166 Q203 161 182 158 L135 150 Q149 146 160 143.5 Q171 141 187 138 Q203 135 212.5 131.5 Q222 128 228 121 Q234 114 233.5 99 Q233 84 223 79.5 Q213 75 205 76 Q192 77 185 82.5 Q178 88 169.5 99 Q161 110 160 113 L134 143 Q137 117 141 105 L150 80 Q153 68 153.5 58 Q154 48 152 42 Q149 34 142.5 30.5 Q136 27 128 27 Q120 26 112.5 29.5 Q105 33 101 38 Q97 43 96.5 52 Q96 61 99 70 Q100 75 108 93 Q116 111 118 119 L124 146 Q111 130 104 122 Q97 114 89.5 103.5 Q82 93 73 85 Q64 77 53 75.5 Q42 74 33.5 80.5 Q25 87 23 99.5 Q21 112 24.5 119 Q28 126 34 130.5 Q40 135 54 138 L83 144 Q116 152 117 152 Z" /><glyph glyph-name="plus" unicode="+" d="M153 306 L196 306 L196 174 L329 174 L329 131 L196 131 L196 -1 L153 -1 L153 131 L22 131 L22 174 L153 174 L153 306 Z" /><glyph glyph-name="hyphen" unicode="-" d="M328 174 L328 131 L21 131 L21 174 L328 174 Z" /><glyph glyph-name="period" unicode="." d="M142 92 L147 87 L154 90 Q160 86 167 81 Q174 76 178 66 Q182 56 182.5 40 Q183 24 179 17 Q176 13 162 3 Q148 -7 144 -7 L129 -4 Q124 -4 123.5 -3.5 Q123 -3 121.5 -1 Q120 1 111.5 9 Q103 17 103 18 L98 19 Q98 21 98.5 21.5 Q99 22 94.5 31.5 Q90 41 90 47 Q90 53 92.5 60 Q95 67 105 77 Q115 87 121 88 L142 92 Z" /><glyph glyph-name="slash" unicode="/" d="M20 -93 L301 396 L344 396 L60 -93 L20 -93 Z" /><glyph glyph-name="zero" unicode="0" d="M29 140 Q31 147 32 152 L35 177 L40 191 L41 202 Q41 206 43 213.5 Q45 221 46 226.5 Q47 232 47.5 235 Q48 238 51.5 245 Q55 252 58.5 261.5 Q62 271 65 272 L67 272 Q68 272 68.5 277 Q69 282 77.5 294 Q86 306 94 309 Q102 312 108 313 Q114 313 116 312 L125 305 Q131 311 137 315 Q143 319 153 320 Q162 320 171.5 315 Q181 310 185 306.5 Q189 303 191 302 L195 297 L215 278 Q224 268 229 257.5 Q234 247 238 234.5 Q242 222 243 208 L242 203 L244 191 Q244 189 241 173 L238 144 L233 127 L233 118 Q232 111 223 83 L215 58 Q209 43 198.5 28.5 Q188 14 171.5 5.5 Q155 -3 142 -6 Q129 -9 117.5 -9.5 Q106 -10 101 -9 Q85 -9 76 -4 Q67 1 63 7 L55 20 L43 37 L37 53 L32 66 Q31 69 30 77 Q29 79 30 82 Q31 85 31 86 L29 88 Q28 88 28.5 91 Q29 94 28.5 100 Q28 106 28 110 L29 113 L28 123 Q28 123 28 126 Q28 131 29 133 L31 136 L29 140 ZM195 255 Q189 260 185 263 Q181 266 176.5 266.5 Q172 267 170 267 Q167 266 166 266 L148 257 Q144 255 140 256 L136 256 L130 265 L120 263 Q116 258 115 256 L111 252 Q104 245 100 235 L87 197 Q83 191 84 189 L85 184 L81 179 Q79 176 80 170 Q81 164 74 135 Q72 128 71.5 113.5 Q71 99 70 90.5 Q69 82 70 80 Q70 79 72 63.5 Q74 48 76.5 44 Q79 40 87.5 36 Q96 32 107 32 Q117 31 127 35 Q137 39 151.5 57 Q166 75 173 90 L185 131 L191 149 L196 177 Q196 180 197 182 L196 191 L199 197 L197 211 Q196 214 197 218.5 Q198 223 198.5 225 Q199 227 199 240 Q198 243 198 245 L193 253 L195 255 Z" /><glyph glyph-name="one" unicode="1" d="M193 286 Q190 282 190 281 L188 270 L184 261 L182 245 L180 243 Q175 238 176 220 L172 213 Q172 211 171.5 210.5 Q171 210 169 206 L168 185 L165 176 L163 167 L160 160 L158 137 L151 113 L147 88 L144 77 L143 67 Q141 56 142 46 L141 42 L143 32 Q143 30 142 26 Q140 19 136 11 L135 2 Q134 0 132 -2.5 Q130 -5 128 -6 Q126 -7 125 -7 L115 -6 L111 -7 L111 -3 Q104 3 100 10.5 Q96 18 95 20 L89 24 Q89 24 89 37 L89 40 L93 49 L96 68 Q95 66 95 62 L102 106 Q103 113 114 171 L123 219 L133 271 Q133 274 134 276 L138 291 Q142 311 145 315 Q148 319 151.5 319.5 Q155 320 168 311 L183 302 Q187 298 189 295 Q191 292 192 291 L193 286 Z" /><glyph glyph-name="two" unicode="2" d="M30 25 Q30 29 31 32.5 Q32 36 42.5 45 Q53 54 76 75 Q99 96 104.5 100.5 Q110 105 112 107 L125 119 L133 125 L154 149 Q171 168 173 172 L176 179 L190 208 L192 216 Q196 232 196 236 Q195 239 192 247 Q189 255 185.5 258.5 Q182 262 178 264 Q174 266 174 267 L168 272 Q166 272 164 273 L158 273 L154 274 Q148 275 132 266 Q118 258 115 255 Q112 252 109 242 L103 225 Q101 219 98.5 217 Q96 215 92 216 Q89 216 84 217 Q79 218 79 220 L71 232 L68 232 L60 248 Q64 258 66.5 263 Q69 268 72 272 L77 279 L92 302 Q95 305 98 306.5 Q101 308 109 310 Q117 312 125.5 315 Q134 318 142 318.5 Q150 319 167 309 Q175 302 191.5 287 Q208 272 214 265 Q220 258 227.5 245 Q235 232 235.5 221.5 Q236 211 231 190 Q226 172 225 168.5 Q224 165 212.5 146.5 Q201 128 200.5 127 Q200 126 182 105 L159 84 Q145 70 139 65 L133 58 Q127 53 126.5 51 Q126 49 128 49 L134 53 L139 51 Q139 50 146 52 L156 52 Q167 52 168 52 L172 50 L184 49 L192 48 Q194 48 197.5 49 Q201 50 202 50 L212 49 L214 53 Q218 49 221 48 L229 44 L237 34 L240 32 Q244 28 244.5 21.5 Q245 15 241 12 L234 5 L232 6 Q227 2 224 1 Q221 0 213 1 Q198 1 195 2 L186 4 Q180 4 175 5 L167 5 L150 6 Q148 5 136 3 L120 0 Q94 -4 91 -4 L84 -4 L65 -7 Q59 -7 54 -4 Q49 -1 44 6 L30 25 Z" /><glyph glyph-name="three" unicode="3" d="M69 77 Q77 71 86 64 Q95 57 99 48 L105 34 Q118 33 125 34.5 Q132 36 148 45 Q164 54 174 64.5 Q184 75 189.5 87 Q195 99 195.5 113 Q196 127 194 130 Q192 133 185.5 137 Q179 141 171 145.5 Q163 150 159.5 151 Q156 152 146 154 Q136 156 135 155 L125 149 L116 147 Q110 156 101 166.5 Q92 177 95 183 L96 185 Q102 189 106 191 L128 200 L138 207 L141 208 Q149 210 163.5 225.5 Q178 241 184.5 251.5 Q191 262 190.5 267.5 Q190 273 182.5 280 Q175 287 158 286.5 Q141 286 134 284.5 Q127 283 115 273 L102 262 Q101 257 99.5 255 Q98 253 96 251.5 Q94 250 89.5 250.5 Q85 251 84 253 L80 260 L73 266 Q72 270 71 273 L65 286 Q65 289 72 296 Q79 303 102.5 316.5 Q126 330 136 328 L139 327 Q141 326 152.5 325.5 Q164 325 172 321 L178 317 L188 311 Q193 307 206.5 289.5 Q220 272 225 264.5 Q230 257 229 252 L228 249 Q227 248 227.5 244 Q228 240 226 236 Q222 228 214.5 217.5 Q207 207 203.5 203 Q200 199 199 198 L179 180 Q185 174 189 171 L193 167 Q207 152 209.5 149.5 Q212 147 220 136.5 Q228 126 229 121.5 Q230 117 231 115 L231 106 L232 79 L229 72 L229 68 Q228 63 221 51 Q214 39 202 29 L197 25 L185 14 Q173 4 159 0 L152 -1 L144 -4 L141 -7 Q132 -8 127 -7.5 Q122 -7 119 -6 L115 -5 Q96 -1 94 0 L87 6 L78 12 Q65 20 60 34.5 Q55 49 55 54.5 Q55 60 57 65 Q59 70 62 72 L69 77 Z" /><glyph glyph-name="four" unicode="4" d="M131 324 Q135 323 137.5 322.5 Q140 322 142 321 Q144 320 151 311 L160 298 Q164 304 166.5 303.5 Q169 303 170 302.5 Q171 302 180 291 L192 273 Q189 269 189 268 L187 234 L185 221 L185 212 Q184 204 182 199 L179 193 Q177 189 177 184 L177 172 Q176 166 176 159 L173 139 Q172 134 171 132 Q170 130 171 130 L172 126 L175 126 L177 129 Q178 127 180 127 L186 129 L196 129 L197 131 Q198 132 205 131 Q212 130 214 131 L218 132 Q221 132 224 129 Q224 128 226 126 L242 107 L245 101 L237 90 Q223 89 218 91 L215 92 L212 89 Q208 91 207 92 L190 88 L173 87 L168 81 Q164 69 164 63 L164 53 L163 46 L162 32 Q160 16 157 7 L151 -8 Q148 -9 144 -10 Q140 -11 134.5 -1.5 Q129 8 129 10 L122 27 Q124 30 125 32 L126 40 L130 56 L128 60 L131 65 Q129 71 130 72 L132 81 L129 84 Q126 84 125.5 84.5 Q125 85 116 81 L100 79 L88 75 Q85 74 77 73.5 Q69 73 66 71 L63 69 L46 71 L38 71 Q35 71 30 75.5 Q25 80 22 89 L19 98 Q15 108 15 111.5 Q15 115 25 129 Q34 141 36 148.5 Q38 156 38.5 157.5 Q39 159 43 163 L61 198 L82 235 Q102 271 103 272 Q104 273 105 274 Q106 275 107 276 Q107 276 106.5 277 Q106 278 107 280 Q107 282 115 295 L122 310 L131 324 ZM60 111 L70 110 L72 113 L81 113 Q82 115 83 116 L91 116 L92 117 Q93 118 100 119 L108 121 Q110 121 120 121.5 Q130 122 135 125 L137 126 L139 136 L148 203 Q148 209 150.5 220.5 Q153 232 154.5 242.5 Q156 253 156.5 264.5 Q157 276 158 280 Q159 284 159 285 L158 289 L155 289 Q147 272 139 261 L135 250 L127 240 L118 222 L105 203 Q102 198 95.5 183.5 Q89 169 79 154 Q69 139 68 135 L63 123 Q60 117 60 116 L60 111 Z" /><glyph glyph-name="five" unicode="5" d="M141 40 Q145 43 147 44 Q149 45 150 46 L155 54 L161 57 Q164 58 167 63 L169 67 L183 86 L185 94 Q185 94 188 99 Q191 104 192 110 L193 121 L196 131 L196 135 L198 145 Q198 148 196 153 Q195 154 195 155 L189 162 L184 170 Q182 171 172 172.5 Q162 174 159 175 Q156 176 155.5 176.5 Q155 177 150 175 L135 175 Q131 174 128.5 173 Q126 172 103 156 L74 134 Q64 140 61 143 Q58 146 51 156.5 Q44 167 43 169 Q42 171 41.5 172.5 Q41 174 43 177 L48 186 Q49 189 52.5 202 Q56 215 61 231.5 Q66 248 66.5 255.5 Q67 263 68 265 L71 276 L69 282 Q71 284 72.5 287 Q74 290 75 297.5 Q76 305 77.5 307.5 Q79 310 83 312.5 Q87 315 89 316 L106 315 L119 316 L135 315 Q138 314 150.5 316.5 Q163 319 172 318.5 Q181 318 183 319 L196 322 Q198 321 203 315.5 Q208 310 216 304 Q224 298 225.5 293.5 Q227 289 227 288 L225 280 Q219 277 217 277 L191 277 L162 273 Q160 272 159 273 L139 274 L116 273 Q114 271 113.5 270.5 Q113 270 112 263 Q111 256 109 246 L106 231 Q103 222 104 222 L106 214 Q120 218 123 218 L141 218 Q142 215 143.5 214.5 Q145 214 152.5 215 Q160 216 173 208 Q186 200 204 181.5 Q222 163 226 156 Q230 149 236 134.5 Q242 120 241.5 112 Q241 104 236.5 93.5 Q232 83 232 82 L225 59 Q221 49 217 44 L201 28 L198 22 Q194 16 184.5 9.5 Q175 3 169.5 2 Q164 1 161.5 -0.5 Q159 -2 159 -1 L157 0 Q149 -4 146 -5 L136 -7 Q134 -8 129 -10.5 Q124 -13 122 -12.5 Q120 -12 118 -11 L106 -6 L90 -2 L76 3 L70 4 Q65 12 62 15 Q59 18 50 26 Q41 34 39 38.5 Q37 43 36.5 55 Q36 67 35 74 Q34 81 34.5 85.5 Q35 90 36.5 90.5 Q38 91 42 91 L54 90 Q60 88 68 81 L76 72 Q80 66 82 64 L83 46 Q83 42 84.5 39.5 Q86 37 89 34.5 Q92 32 95 32 L127 36 Q130 36 131.5 36.5 Q133 37 135 40 Q137 43 138 43 L141 40 Z" /><glyph glyph-name="six" unicode="6" d="M35 151 Q36 158 38 162 L46 179 L53 197 L61 209 L70 229 Q75 241 84.5 252.5 Q94 264 108 281 Q122 298 131 305 Q140 312 149.5 316 Q159 320 166 320 Q169 319 172.5 318 Q176 317 186 306 L196 294 Q194 289 193 287 Q192 285 190.5 283.5 Q189 282 180.5 280 Q172 278 164.5 272.5 Q157 267 143.5 253 Q130 239 123.5 231.5 Q117 224 111.5 212 Q106 200 94 179 L93 174 Q102 175 107.5 178 Q113 181 114 182 L119 182 L130 185 Q132 185 138 185 Q159 183 169 178.5 Q179 174 195.5 159 Q212 144 216 140 Q220 136 223 132 L229 120 L235 113 L238 98 L242 85 L242 81 L240 76 L240 68 Q239 66 239 64 L229 48 L221 31 L208 18 L199 7 Q194 2 188.5 -1 Q183 -4 171.5 -6.5 Q160 -9 157 -9 L145 -10 Q142 -14 141 -14.5 Q140 -15 138 -14 L133 -14 L117 -10 Q105 -8 105 -7 L92 0 L85 1 Q83 1 73 11 L65 17 Q58 21 44.5 41.5 Q31 62 28.5 69.5 Q26 77 26 98 Q26 117 27.5 125 Q29 133 30.5 138 Q32 143 34 148 L35 151 ZM118 26 Q118 26 122 26 Q126 26 135.5 28 Q145 30 149 31 L155 31 Q159 31 170 43 L176 49 Q180 54 189 69 Q198 84 199.5 88 Q201 92 201 100 Q200 115 197 122.5 Q194 130 189 134 Q184 138 179 140 L168 141 L157 143 Q154 143 151 143 Q133 141 114 132 L100 127 Q94 124 85 116.5 Q76 109 73.5 103 Q71 97 72 89 Q72 83 73 76 Q74 69 80.5 52.5 Q87 36 95 32 L109 28 Q115 26 116 25.5 Q117 25 118 26 Z" /><glyph glyph-name="seven" unicode="7" d="M115 310 Q117 312 118 311.5 Q119 311 121 310.5 Q123 310 130 311 L139 311 Q139 311 142 311.5 Q145 312 148 313 L162 313 L171 314 Q172 313 178 313 L195 311 Q200 309 202 310 Q203 310 208 311 Q213 312 217 312 Q220 311 222 309.5 Q224 308 235 296 Q246 284 246 280 Q245 275 241 274 L236 272 Q235 271 232.5 266.5 Q230 262 220 250.5 Q210 239 203.5 227 Q197 215 194 212 Q191 209 191 208 L191 202 Q190 199 187 192.5 Q184 186 183 183 L176 157 L167 137 Q165 132 160 112 Q155 92 154.5 89 Q154 86 154 85 L149 73 Q148 72 149 61 L143 35 Q141 28 140 26 L136 21 L136 5 Q135 1 133.5 -1.5 Q132 -4 130 -6 Q128 -8 121 -9 Q114 -10 106.5 3.5 Q99 17 98.5 21 Q98 25 99 27 L103 40 L106 55 L111 73 Q111 90 113 92 Q115 94 116 95 L116 103 L120 111 L120 118 Q120 118 123 127 L125 135 L128 144 L131 156 L136 164 L140 176 Q140 176 141.5 178.5 Q143 181 148.5 200.5 Q154 220 165 242 L180 272 Q174 274 171.5 274.5 Q169 275 157 273 L115 271 L94 268 L81 267 L65 263 Q61 262 55 262 Q44 261 39 263.5 Q34 266 30 274.5 Q26 283 24 286.5 Q22 290 22 294.5 Q22 299 29 302 Q29 302 35 301 Q41 300 54 303 L71 305 Q73 305 75 305.5 Q77 306 79 307 L85 307 L90 310 Q91 311 94 311 L99 310 L115 310 Z" /><glyph glyph-name="eight" unicode="8" d="M100 163 Q82 180 77 188 Q72 196 69 203 L67 207 Q61 217 60.5 218 Q60 219 57.5 231.5 Q55 244 56 246 Q56 249 59 261 Q62 273 66 279 L93 307 Q98 314 101 315 L114 311 Q115 310 120.5 311 Q126 312 127 313 L130 315 Q142 315 146.5 314.5 Q151 314 154.5 314.5 Q158 315 160 315 L166 312 L173 311 Q175 310 179 307 Q183 304 187 301 L200 285 L211 275 Q212 272 217 262 Q222 252 222.5 250 Q223 248 223 228 L223 221 Q222 216 223 212 Q222 211 220 207 L216 196 L210 186 L206 178 L194 170 Q193 160 194 157.5 Q195 155 217 135.5 Q239 116 238 84 Q237 68 231 52 L229 47 Q223 33 221.5 29.5 Q220 26 217.5 24 Q215 22 209 18 L192 5 Q186 1 181 -0.5 Q176 -2 165.5 -5.5 Q155 -9 152.5 -9.5 Q150 -10 138 -9 L115 -9 Q105 -8 94 -3.5 Q83 1 73 10 Q63 19 61 24 L55 35 L49 42 Q45 46 43.5 52.5 Q42 59 42 80.5 Q42 102 49 115 Q49 116 56.5 125.5 Q64 135 66 137 L84 150 L100 163 ZM77 60 Q78 58 79 57 L83 38 Q83 35 85 32.5 Q87 30 91.5 27 Q96 24 112 25 Q142 26 160 34.5 Q178 43 186.5 56 Q195 69 194 71 L192 76 Q194 78 195.5 79.5 Q197 81 197.5 82.5 Q198 84 198.5 86.5 Q199 89 192 101 Q185 113 180 117 L169 123 L149 139 Q137 132 128.5 126.5 Q120 121 115.5 119 Q111 117 109.5 116 Q108 115 103 107 L92 94 L87 85 L82 81 L82 74 L80 71 L80 63 L77 60 ZM127 271 Q124 267 123 267 L116 265 Q113 264 109 259 Q105 254 104 252 L102 246 L96 232 Q95 230 96 229 Q96 222 98.5 214.5 Q101 207 102 204.5 Q103 202 114 196 L124 189 Q125 187 128.5 186 Q132 185 136 185 Q143 184 155 191 Q167 198 176 218 Q185 238 184.5 250.5 Q184 263 177.5 269.5 Q171 276 158 276 Q153 275 148 275 L135 272 L127 271 Z" /><glyph glyph-name="nine" unicode="9" d="M216 265 L211 261 L215 258 Q216 257 217.5 257.5 Q219 258 220 258 Q221 257 224 255 L230 247 L247 232 Q246 228 246 227 L236 213 L232 203 L227 196 Q226 195 225 192 Q224 189 219 177 L213 162 Q207 148 207 146 L203 125 L201 120 L199 112 L194 104 L195 102 L195 88 L192 85 L191 79 L187 74 Q189 70 189.5 68 Q190 66 184 50 L180 34 L173 16 L173 7 L168 2 Q168 0 167.5 -3.5 Q167 -7 163.5 -8.5 Q160 -10 155 -10.5 Q150 -11 149 -10 Q147 -10 145 -8 Q143 -6 142 -3 L136 6 Q131 13 130.5 15 Q130 17 133 28 L135 42 L140 54 L143 73 L147 82 L152 106 L156 118 L163 150 Q162 150 160.5 149.5 Q159 149 154 146.5 Q149 144 145 143 Q141 142 135 142 Q121 141 107 146 Q93 151 87.5 155.5 Q82 160 79 164 Q76 168 66.5 182.5 Q57 197 53.5 204.5 Q50 212 50 229 Q50 240 54 251 L61 269 Q63 275 64 277 Q65 279 71.5 288.5 Q78 298 105.5 309.5 Q133 321 150 321 Q163 320 173 314.5 Q183 309 189.5 301 Q196 293 198 292 L213 276 L216 265 ZM207 261 L199 257 Q193 262 190 265.5 Q187 269 186.5 269.5 Q186 270 177 276 L166 282 Q164 281 164 282 L157 285 L154 284 L152 280 L138 279 Q125 271 118.5 266 Q112 261 111 260 L96 243 Q95 237 95 235 L92 229 Q91 227 91 217 L90 206 Q89 204 89.5 198 Q90 192 95.5 185.5 Q101 179 108.5 179.5 Q116 180 123 181.5 Q130 183 140.5 188 Q151 193 162.5 202 Q174 211 182 220.5 Q190 230 193 234.5 Q196 239 199 245 Q202 251 205 254 Q208 257 208 259 L207 261 Z" /><glyph glyph-name="uni3002" unicode="&#x3002;" d="M111 52 Q111 55 112 56 L121 62 Q124 56 126 54 Q128 52 130 51.5 Q132 51 142 57 Q145 59 151 61 L158 63 Q163 64 165 65 Q168 65 178 60 L196 52 Q201 49 208.5 42 Q216 35 224.5 13.5 Q233 -8 232 -23 Q231 -32 227.5 -42 Q224 -52 219 -57 Q214 -62 209.5 -65 Q205 -68 196 -71.5 Q187 -75 179.5 -78 Q172 -81 161 -81 Q144 -82 131.5 -75 Q119 -68 109 -56.5 Q99 -45 93.5 -33 Q88 -21 88 -3.5 Q88 14 91 23 Q91 25 96.5 34.5 Q102 44 104 46 L111 52 ZM179 19 Q170 18 167 17 L151 12 Q141 11 139 10 Q137 9 133.5 0 Q130 -9 129.5 -20 Q129 -31 134 -37.5 Q139 -44 147.5 -45.5 Q156 -47 170 -37 Q177 -32 181 -26 Q185 -20 186 -16 L185 -5 L186 6 Q176 18 179 19 Z" /><glyph glyph-name="uniFF01" unicode="&#xff01;" d="M97 -27 L97 -21 Q97 -20 100.5 -15.5 Q104 -11 106.5 -6 Q109 -1 111 0.5 Q113 2 118 3 Q123 3 139.5 -6.5 Q156 -16 160.5 -25 Q165 -34 165.5 -36.5 Q166 -39 165 -41 L162 -49 L160 -60 Q157 -67 153 -70 Q149 -73 143.5 -75.5 Q138 -78 136 -77 Q134 -77 127 -74 L119 -71 Q114 -69 108.5 -56.5 Q103 -44 100 -40 Q97 -36 97 -27 ZM156 229 Q160 233 160 234 L161 243 L171 248 Q175 244 177.5 242 Q180 240 187 233 Q194 226 199 221 Q204 216 205 214 L206 209 Q201 205 201 203 L200 197 L196 191 Q195 189 194 182 L193 177 L192 162 Q191 161 190 157 L182 118 L178 105 Q176 96 175 95 L173 92 L169 64 L166 60 Q168 55 168 54 L166 49 L169 46 L166 43 Q166 40 165.5 36.5 Q165 33 159.5 31 Q154 29 151 30 Q144 30 141 32.5 Q138 35 129 48 Q120 61 120 66 L120 69 Q119 72 120 73 L125 87 L128 104 L134 121 Q134 122 136 129 L143 157 L147 182 Q148 189 149 190 L150 201 L154 212 L156 229 Z" /><glyph glyph-name="uni767D" unicode="&#x767d;" d="M135 232 Q144 244 156 265 L175 298 L182 315 Q173 322 170 327 L156 346 L145 352 L145 355 Q159 357 177 349 Q195 341 202 339.5 Q209 338 211 336 L214 331 L229 318 Q235 312 241 294 Q247 276 245 270 L234 253 L234 248 Q247 251 254 252 L266 252 L278 255 L293 253 L305 254 Q305 253 315 251 L334 248 Q340 246 368.5 235.5 Q397 225 402 220.5 Q407 216 418.5 198 Q430 180 431 175 L421 149 L418 136 L414 123 L413 111 L408 88 L406 64 Q403 48 391.5 29.5 Q380 11 373 7 L362 1 Q349 -9 349 -8 L343 -5 L317 -14 L310 -7 Q304 -7 300 -2 Q288 -3 283 0 L276 3 L268 6 L261 15 Q254 12 243.5 11.5 Q233 11 223 7 L209 3 L198 -4 Q171 1 156 9.5 Q141 18 129.5 36.5 Q118 55 112 75 Q106 95 104.5 101.5 Q103 108 102 113.5 Q101 119 100 128.5 Q99 138 98 166 Q97 194 106 211 Q115 228 135 232 ZM147 135 Q161 138 168.5 140.5 Q176 143 187.5 149.5 Q199 156 205 158 L244 155 L262 155 Q284 153 289 146 L310 118 Q305 111 297 109 Q295 110 295 111 L284 108 L274 109 Q272 109 264 106 Q256 103 225 99.5 Q194 96 179.5 71.5 Q165 47 166 43 L166 41 Q188 40 195 43 L205 47 L224 50 Q251 57 259 55 L289 47 L293 38 Q298 34 305 40 Q323 55 334.5 77 Q346 99 349 115 L352 138 L363 208 Q355 212 326 217 Q322 217 313 215 Q304 213 295.5 212.5 Q287 212 286 212 L274 205 L260 202 Q252 200 229 186 Q206 172 199 173 Q171 175 170 176 L157 182 L145 184 L139 180 Q139 176 140 175 L141 162 L147 135 ZM158 57 Q169 82 176 87 L190 98 L190 102 Q182 103 171 107.5 Q160 112 154 116.5 Q148 121 148 116 Q147 115 148 113 Q149 111 149 103 L151 90 L152 77 L158 57 Z" /><glyph glyph-name="uni699C" unicode="&#x699c;" d="M33 180 Q46 179 51.5 181.5 Q57 184 69 202.5 Q81 221 119 261 L125 258 L125 262 Q130 268 135 271 L135 275 Q135 276 136 277 L142 274 L145 281 L150 280 Q156 286 167 290 Q164 296 163 299 L153 308 L148 315 Q149 315 150 315.5 Q151 316 155.5 310.5 Q160 305 181 300 L181 337 Q168 339 159 328 Q147 334 140 344 L134 329 Q130 338 130.5 343.5 Q131 349 137.5 357 Q144 365 149 365 Q163 372 165 372 Q166 371 178.5 365 Q191 359 196 353.5 Q201 348 206 336 Q211 324 211 316 Q210 314 209.5 308 Q209 302 209 294 Q208 286 210 285 L213 281 L212 278 Q215 274 215.5 272 Q216 270 215.5 265 Q215 260 214 258 L205 246 L203 238 L200 235 L200 223 Q194 218 195 210 L195 198 L193 190 Q204 197 210 203 L226 219 L236 224 Q231 213 229 206 Q231 204 232 203 L239 193 Q246 186 263 192 Q261 194 261 195 L257 198 Q256 199 256 202 L257 219 Q256 233 258 236 L265 244 L281 263 L279 266 Q263 258 243 271 L243 296 Q250 306 256 303 Q260 306 280.5 319.5 Q301 333 302 332 L302 334 Q288 343 285 347.5 Q282 352 272 384 Q276 382 278 382 L287 373 Q289 370 293 369 L321 368 Q339 366 341.5 365 Q344 364 359 354 L361 343 L373 333 L361 326 Q370 319 375 316 Q380 313 381 311 L381 309 L389 298 Q389 296 378 289 Q367 282 364 281 Q361 280 350 275 L330 269 L321 263 L321 259 Q336 261 344 266.5 Q352 272 354 273 L371 269 L373 270 Q394 259 396 253 L399 242 L395 239 L396 232 Q384 227 378 221 Q379 220 380 220 L391 221 Q392 220 395 220 L426 207 Q434 207 435 207 Q435 206 442 202 L462 190 L466 184 L474 176 Q475 173 475.5 170.5 Q476 168 473 163 Q470 159 469 159 L464 159 L458 155 Q456 154 452 154 L439 151 L425 149 L402 143 L410 134 Q410 126 412 126 L420 121 Q418 117 413.5 115 Q409 113 408 113.5 Q407 114 400 116.5 Q393 119 379 114 Q381 102 381.5 94.5 Q382 87 383.5 84.5 Q385 82 393.5 73.5 Q402 65 409 47.5 Q416 30 415.5 7.5 Q415 -15 384 -41 Q353 -67 335 -73.5 Q317 -80 286 -73 Q273 -57 273 -53 L268 -29 Q267 -29 265.5 -29.5 Q264 -30 259 -33.5 Q254 -37 248 -41.5 Q242 -46 231 -55 L217 -59 L207 -66 Q206 -64 206.5 -63.5 Q207 -63 210.5 -56 Q214 -49 217.5 -40 Q221 -31 245.5 1.5 Q270 34 285.5 49 Q301 64 302 66 L311 86 Q292 76 279 66.5 Q266 57 263 58 L248 57 L248 43 Q231 50 227 57 L220 69 L216 73 Q214 79 213 83 L208 96 L205 118 Q199 116 199 112 Q187 98 185 91.5 Q183 85 182.5 74 Q182 63 181 49 Q180 35 180.5 27.5 Q181 20 183 4.5 Q185 -11 189 -18 L193 -25 L195 -40 Q198 -47 198 -48 L195 -54 Q166 -29 160 -11 L157 15 L153 46 L127 14 L118 6 L105 13 Q105 22 104 25 L100 32 Q100 34 100 35 L95 51 L101 53 Q103 57 104.5 61 Q106 65 110 81 Q114 97 123 120 Q132 143 135 151 L144 177 Q150 192 151 195 L153 203 Q154 208 154 209 L153 213 Q139 202 126.5 185.5 Q114 169 114 166 L112 149 L106 144 Q102 147 98 146.5 Q94 146 85 150.5 Q76 155 63 159 Q50 163 43 171 Q36 179 33 180 ZM216 185 L221 187 Q224 191 226 196 L218 190 Q215 188 216 188 L216 185 ZM224 173 L232 162 Q247 169 254 178 L245 177 L236 181 L233 187 L224 173 ZM237 87 L240 76 L245 96 Q255 101 262 101 Q272 108 289 121 Q306 134 314 139 Q322 144 323 148 L319 156 L313 167 Q299 159 285.5 150.5 Q272 142 260.5 141.5 Q249 141 233 154 L229 154 Q228 152 228 151 L231 132 L229 123 Q229 122 230 118 L237 87 ZM271 303 L272 302 L278 305 L279 307 L280 308 L277 308 L274 307 L272 307 L270 306 L271 303 ZM277 198 L278 197 Q328 228 338 233 Q348 238 347 242 L346 245 Q335 243 329.5 240.5 Q324 238 281 207 L277 198 ZM325 -19 L330 -14 L334 -14 Q346 0 354.5 10.5 Q363 21 365.5 27.5 Q368 34 368 35 L365 47 Q360 45 358 44 L349 36 L340 34 L335 29 Q326 27 316 15 L301 -1 Q296 -7 290 -23.5 Q284 -40 298 -37 Q307 -36 325 -19 ZM325 173 Q329 171 331 172 L335 173 L346 175 L349 172 L355 172 L362 161 Q403 180 419 191 Q414 194 403.5 197 Q393 200 386.5 199.5 Q380 199 359 190 L334 177 L326 174 Q323 172 325 173 Z" /><glyph glyph-name="uni79E4" unicode="&#x79e4;" d="M34 182 Q34 184 38 184 L47 182 Q54 181 70 196 Q85 210 116 230 Q147 250 175 262 Q159 272 160 278 L160 281 L178 267 L178 273 L182 283 L182 290 Q179 291 178 293 L174 302 L171 307 L164 307 L161 304 L153 308 L149 304 Q144 305 140 310 L127 304 L121 310 Q113 306 101 303 L93 299 L86 299 Q88 307 121 329 L146 349 L164 360 L172 366 L172 369 L165 377 L183 374 L186 377 Q192 377 193 376 L193 374 Q193 372 198 373 L222 356 L237 349 L237 343 Q249 325 247 321 L241 307 Q231 308 225 313 L188 309 Q213 289 215 281 L221 261 L235 253 Q230 242 229 242 L218 235 L218 226 L215 223 L215 212 L212 209 L212 198 Q206 192 208 191 L210 187 Q217 192 227 198.5 Q237 205 241.5 209 Q246 213 249 215 L248 209 L243 204 L245 199 L237 190 L246 193 Q245 188 245 186 L238 177 L233 164 L229 160 L230 154 Q200 116 198.5 111 Q197 106 197 104 L197 91 L194 69 L196 60 Q194 58 193.5 57 Q193 56 192.5 54 Q192 52 192.5 37 Q193 22 197.5 10 Q202 -2 202 -3 L198 -14 Q193 -9 189 -6 Q185 -1 179 0 Q178 3 177 6 L171 15 L172 25 L170 39 L172 47 Q169 49 169 51 L168 73 Q166 80 164 79.5 Q162 79 152 68 Q147 72 137 55 Q135 52 132.5 48.5 Q130 45 128.5 41 Q127 37 126 38 Q125 38 125 39 L125 41 L117 37 Q103 47 103 50 L89 79 L93 83 Q94 83 96.5 82.5 Q99 82 100 83 Q107 85 113 97 L117 105 Q127 118 127 119 L126 125 Q126 125 128 128 Q130 131 132.5 140.5 Q135 150 139 159.5 Q143 169 144 171 L144 180 L147 184 Q146 184 145 183.5 Q144 183 141 180 L125 165 L118 157 Q99 136 83 144.5 Q67 153 59 160 L38 179 L34 182 ZM225 114 L229 127 Q238 127 241.5 129 Q245 131 250 136.5 Q255 142 266 151 L281 164 L303 181 Q308 183 318 194 Q328 205 330 209 L329 239 L332 257 Q320 250 310 237.5 Q300 225 299 221 L288 190 Q285 186 281 185 Q277 184 261 205 Q260 206 260.5 207.5 Q261 209 261 210 Q260 212 255.5 216.5 Q251 221 252 228 Q252 264 305 323 Q301 328 298 328.5 Q295 329 294 330.5 Q293 332 285 337 Q277 342 271 350.5 Q265 359 265 360 L262 376 Q275 357 286 356 Q291 355 317 365 Q343 375 362 374 Q384 372 399 361 Q414 350 419 341 L407 327 Q368 317 362 312 L362 307 Q366 304 367 302 L368 294 L373 281 L392 284 L394 287 Q408 285 414.5 281.5 Q421 278 427 271 L433 262 Q438 254 438.5 251.5 Q439 249 438.5 245 Q438 241 432 228.5 Q426 216 410 207 L397 200 L381 185 Q399 178 417 183 Q427 180 433 174 L441 173 L442 169 Q462 165 469 152 Q476 148 478 146 L480 142 Q482 138 480 138 L468 132 Q464 135 450 134 L444 140 Q442 139 441 139 L427 143 L421 140 Q419 139 411.5 138.5 Q404 138 381 132 Q378 125 377.5 122.5 Q377 120 378 118 L378 104 L379 89 L375 84 Q376 74 376.5 71.5 Q377 69 375 47 L373 14 L371 4 Q369 -4 370 -6 L372 -24 L368 -28 Q368 -37 367 -41 L361 -56 L360 -82 L358 -89 Q357 -89 356 -88 Q355 -87 354.5 -76.5 Q354 -66 351.5 -57.5 Q349 -49 349 -43 L347 -29 L343 -14 L339 16 Q338 21 337 28.5 Q336 36 335 39 Q334 42 333.5 42.5 Q333 43 334 45 L334 49 L335 63 Q335 66 334 69 L332 72 L332 93 L330 98 Q328 101 329 103 L330 114 Q322 114 317 113 L291 105 Q276 101 275 101 L268 97 L252 94 L243 90 L241 93 Q234 88 226 94 L225 114 ZM295 249 Q315 261 323 265 Q331 269 333 272 Q335 275 334 288 Q333 301 332 305 L329 311 Q315 307 307 293 Q299 279 298.5 269 Q298 259 295 255 Q292 251 293 251 L295 249 ZM319 153 L321 155 L325 155 L329 157 L330 158 L328 160 L322 160 L317 155 L319 153 ZM375 249 Q385 254 389 265 Q390 269 390 270 L387 277 Q375 280 375 267 L375 249 Z" /><glyph glyph-name="uni5904" unicode="&#x5904;" d="M31 -17 Q32 -15 33 -13 L55 -15 Q58 -15 73.5 -6 Q89 3 90.5 7.5 Q92 12 93 13 L96 13 Q124 42 138 68 L157 109 L159 113 Q157 117 154.5 121 Q152 125 142.5 129.5 Q133 134 127 133 Q121 132 120 132 L119 124 Q115 121 114.5 120 Q114 119 113 114 L108 103 L107 98 Q80 121 78 130.5 Q76 140 75.5 145 Q75 150 78 157 L82 167 L83 174 L75 182 Q75 182 80.5 181.5 Q86 181 87.5 182 Q89 183 91 187 L95 199 Q97 207 109 221 L109 223 Q113 228 116 232 L127 249 Q135 260 136 261 L142 272 Q150 281 149.5 282 Q149 283 149 285 L140 290 L133 298 L140 297 Q149 303 160.5 299.5 Q172 296 180 289 L185 289 L188 286 L192 286 Q199 272 205 270 L242 273 Q244 271 250 264.5 Q256 258 262 253.5 Q268 249 269 248 Q270 247 275.5 236.5 Q281 226 281 224 Q280 220 277 217 L260 205 Q250 197 232.5 153.5 Q215 110 217 106 Q217 104 218 101.5 Q219 99 240.5 78 Q262 57 266 56 L277 52 L287 46 Q303 39 307 42 L302 75 L301 159 L302 206 Q300 252 300.5 257 Q301 262 302 263 Q302 265 302 267 L301 279 L302 285 L301 290 L304 299 Q304 299 304 301 Q303 305 301.5 310.5 Q300 316 287.5 325.5 Q275 335 269.5 341 Q264 347 262 359 Q283 371 296 359 Q309 347 316 341 Q323 335 326 332 L333 320 Q339 310 340 308 L341 300 L344 297 Q343 295 343 294 L347 279 Q347 277 347 268 Q346 256 346 255 L344 250 Q343 248 342.5 244 Q342 240 343 240 Q343 239 345 235.5 Q347 232 347 227 L347 223 Q350 219 352 218 L368 218 Q390 216 413 199 Q436 182 438 174 L443 153 Q437 150 434.5 149.5 Q432 149 419 154.5 Q406 160 394 161.5 Q382 163 379 163 Q377 165 376 166 L365 167 L348 173 Q346 157 346 149 L346 110 Q345 106 344.5 100 Q344 94 343.5 89.5 Q343 85 343 84 L341 77 L340 54 L338 34 Q391 23 405 17 Q419 11 432 0 L448 -15 Q470 -35 472.5 -39.5 Q475 -44 477 -45 Q479 -46 480 -48 Q474 -53 472 -53 L449 -48 L419 -47 L413 -45 L385 -45 L377 -42 L360 -41 L343 -36 L338 -37 Q336 -38 332.5 -36 Q329 -34 320.5 -32 Q312 -30 304.5 -26.5 Q297 -23 293 -23 Q243 4 225.5 26 Q208 48 195 63 L182 38 Q178 36 177 35 Q176 34 174.5 31 Q173 28 168 23 L152 4 Q134 -11 133 -11 L126 -11 Q115 -20 103 -21 Q91 -22 89 -24.5 Q87 -27 84 -24 Q74 -28 70 -28 L47 -21 L31 -17 ZM148 173 Q160 159 177 149 Q181 155 184 166 Q189 169 190 176 L193 179 Q193 183 193.5 184.5 Q194 186 198 193 L205 208 L219 234 Q197 236 192.5 233.5 Q188 231 178 218 L166 205 L158 193 L151 184 L148 173 Z" /><glyph glyph-name="uni593A" unicode="&#x593a;" d="M25 73 Q40 69 60 76.5 Q80 84 108.5 129 Q137 174 145 194 L153 216 L164 238 Q148 250 136.5 255.5 Q125 261 125 263 L118 274 Q129 272 139.5 270.5 Q150 269 154 270 Q159 270 170.5 273 Q182 276 186 278.5 Q190 281 205 307 Q220 333 224.5 338 Q229 343 228.5 346.5 Q228 350 228 351 Q227 351 222 350 L215 351 L204 348 Q201 347 197.5 348.5 Q194 350 192 350.5 Q190 351 188.5 352 Q187 353 183 364 Q187 367 190 369 L212 380 L219 385 Q225 383 228 382 L250 371 L262 367 Q267 364 273 358.5 Q279 353 278.5 350 Q278 347 276.5 343.5 Q275 340 266 322 L265 313 Q304 298 301.5 288.5 Q299 279 297 277 L279 268 Q299 243 321.5 218 Q344 193 375 180 L440 158 Q475 143 485.5 124.5 Q496 106 499 93 Q497 92 497 93 L487 95 L479 92 Q478 92 475 93 L459 93 Q456 93 447 95.5 Q438 98 408.5 101 Q379 104 365.5 112 Q352 120 330 142 Q308 164 304 168.5 Q300 173 292 187 L270 219 Q264 228 258.5 239 Q253 250 242 251 Q228 251 223 245.5 Q218 240 206 215 L196 197 L189 179 L181 163 L170 135 L152 105 Q161 107 191 115.5 Q221 124 237.5 125.5 Q254 127 260 134 Q254 140 256 142 L259 148 Q256 152 256.5 154 Q257 156 258 160 Q259 164 259 169 Q258 175 256.5 177.5 Q255 180 216 203 L220 207 Q226 205 232 208 Q244 204 251.5 198.5 Q259 193 273 187 Q287 181 296.5 166.5 Q306 152 305 148 L303 136 L306 133 Q310 134 323 128 L333 123 L343 112 L351 104 Q346 100 343.5 99.5 Q341 99 334.5 99.5 Q328 100 319.5 99 Q311 98 302 100 L302 97 L304 21 Q304 0 305.5 -9 Q307 -18 307 -20 L306 -25 L303 -47 Q298 -64 286 -69 L286 -72 Q278 -80 274 -81 L258 -84 L241 -92 L237 -93 Q235 -89 234 -87 L224 -74 Q222 -70 221.5 -69.5 Q221 -69 215.5 -63.5 Q210 -58 210 -56 L210 -49 Q209 -49 206 -41 Q203 -33 201.5 -27.5 Q200 -22 195 -7 Q190 8 189 18 L188 30 Q185 49 186 50 L188 65 Q205 71 208 71.5 Q211 72 216 69.5 Q221 67 229 64 Q237 61 243.5 53.5 Q250 46 253 41 L260 23 L262 21 Q263 40 260.5 56.5 Q258 73 259.5 77.5 Q261 82 260 88.5 Q259 95 253 93 L182 70 Q166 64 136 81 L136 90 L104 69 Q100 71 99 72 L68 64 L55 66 Q53 65 39 62 Q25 59 25 70 L25 73 ZM236 -51 Q241 -48 243 -46 Q245 -44 250 -34 L260 -16 Q262 -11 262 -6 Q261 -3 259 6 L251 1 Q241 4 238 7 L228 15 Q216 22 212 29 Q208 36 205 32 Q205 31 206 30 L208 11 Q209 5 211.5 1 Q214 -3 215 -3 L216 -13 Q216 -16 219.5 -26 Q223 -36 236 -51 Z" /><glyph glyph-name="uni4E8C" unicode="&#x4e8c;" d="M51 76 Q53 71 61 68 L71 63 Q74 62 80 62 Q87 61 89.5 62 Q92 63 105 69 Q118 75 174 85 L224 94 Q252 99 257 99 L276 98 Q279 98 282.5 99.5 Q286 101 287 102 L299 101 Q299 101 303 101.5 Q307 102 320 103 Q320 103 321 103 L333 102 L343 104 L360 102 L368 104 Q370 104 383 103 L402 102 L422 98 L432 99 Q440 93 454 81.5 Q468 70 469 70 L471 61 L475 49 L474 43 L478 37 Q470 24 463 25 Q453 25 434 34.5 Q415 44 374 47 L371 50 Q370 49 343 53 Q325 54 314 53 L307 50 L301 51 Q294 51 293 51 L290 49 Q288 47 280.5 47.5 Q273 48 263.5 44.5 Q254 41 248 40 Q242 39 236 38 L229 37 L219 33 L214 35 Q212 31 211 30.5 Q210 30 206.5 29.5 Q203 29 190.5 26 Q178 23 169 17.5 Q160 12 145 5.5 Q130 -1 127.5 -0.5 Q125 0 116 4 L112 1 Q106 4 103 6 L80 17 Q48 33 48 48.5 Q48 64 48 66 Q48 68 48 69 L51 76 ZM141 260 L141 265 Q168 249 174 249 L199 254 Q221 257 239 264 Q257 271 264 272 L265 279 Q273 279 277 283 L285 276 Q298 279 305 279 Q309 278 326 271 Q343 264 347 261 L357 248 Q362 241 363 240 L360 229 L359 224 Q357 221 348.5 216.5 Q340 212 333 211.5 Q326 211 325 212 L313 213 Q309 213 299.5 211 Q290 209 285 206 L277 201 L266 199 L250 195 Q247 194 234 197 Q233 197 219.5 194.5 Q206 192 198 187 L196 190 L207 199 Q196 202 185.5 207.5 Q175 213 169 218 Q163 223 156.5 232.5 Q150 242 147 244.5 Q144 247 144 248 L146 257 L141 260 Z" /><glyph glyph-name="uni91D1" unicode="&#x91d1;" d="M215 370 L202 379 Q219 389 224.5 387 Q230 385 244 375 L260 364 Q265 358 266 347 L255 335 L255 332 Q287 302 317.5 266.5 Q348 231 351.5 228.5 Q355 226 385.5 213 Q416 200 439.5 187 Q463 174 477 155 Q491 136 493 132 L495 123 L501 110 Q484 110 474 118 Q471 115 469 114.5 Q467 114 454 118 L440 124 Q367 147 362 150 Q357 153 345.5 164.5 Q334 176 331.5 178.5 Q329 181 328 183 L293 229 L250 294 Q244 298 238.5 299 Q233 300 221 282 Q198 248 197 245 L190 229 L194 223 Q200 219 208 224 L213 222 L217 225 L225 225 L228 228 L241 228 L245 233 Q269 225 278 214.5 Q287 204 287 203 L285 198 L256 185 Q260 177 264 174 Q268 171 282.5 169.5 Q297 168 309 166 Q312 156 316 153 L339 131 L341 125 Q336 120 332 121 L329 121 L309 129 Q307 129 304 129 Q286 127 258 117 Q258 107 258 106 L257 87 Q259 86 261 86 L273 88 Q273 88 275 88 Q281 87 295 79 Q309 71 315.5 60.5 Q322 50 322.5 46 Q323 42 321 37 Q317 27 312.5 22.5 Q308 18 295 8.5 Q282 -1 274.5 -4.5 Q267 -8 265 -12 Q268 -14 270 -14 L282 -13 L288 -14 L303 -10 Q303 -10 305 -10 Q322 -12 334 -25 L341 -25 L341 -30 L349 -40 L351 -39 Q357 -49 356 -56 Q355 -63 347 -64 L342 -62 Q340 -62 335 -62 L307 -52 Q302 -51 297 -51 L281 -52 L252 -50 Q231 -51 228 -51.5 Q225 -52 214.5 -54.5 Q204 -57 189.5 -60 Q175 -63 167 -67 Q159 -71 158 -70 Q153 -70 150 -62 L143 -41 L137 -29 Q141 -27 144 -25 L182 -10 Q193 -5 206 4.5 Q219 14 219 22 L215 34 L212 44 Q193 29 190 20 L184 3 Q180 -2 175 -2 Q149 15 147 18.5 Q145 22 146 25 L147 31 Q145 33 144.5 34.5 Q144 36 148 46 L150 54 L158 82 Q156 84 155 84.5 Q154 85 148 85.5 Q142 86 132 91.5 Q122 97 121 101 L114 116 Q100 105 92 98 Q84 91 82 90 L54 73 Q41 60 37.5 62.5 Q34 65 34 68 L38 79 L86 150 Q102 174 140 243 L175 307 L179 312 Q179 312 178 323 L204 353 L215 370 ZM131 118 Q134 118 137 117.5 Q140 117 141 118 L158 125 L227 150 L227 160 Q221 161 196 151 L173 143 L148 129 L136 124 Q128 120 130 119 L131 118 ZM130 131 Q142 136 173 157.5 Q204 179 211 194 Q199 200 192.5 209 Q186 218 182 216 Q165 189 157.5 173 Q150 157 147 153 L135 139 L130 131 ZM177 33 L208 58 Q203 94 176 82 Q177 76 178 73 L176 51 L177 47 L177 33 ZM197 89 Q206 82 209 78 L215 68 Q217 65 219.5 65.5 Q222 66 223 68 Q224 70 223 77 L226 97 L223 103 Q213 96 205 94.5 Q197 93 197 89 ZM253 37 Q257 37 263 43 L275 52 Q281 57 289 70 L286 75 Q269 73 257 67 Q257 64 257 63 L253 37 ZM260 158 L272 159 L266 169 L262 169 L260 158 Z" /><glyph glyph-name="uni5DE8" unicode="&#x5de8;" d="M121 150 L124 153 Q126 187 130 211.5 Q134 236 161 305 Q151 318 138 322.5 Q125 327 130 334 Q130 335 141.5 332.5 Q153 330 176 339 Q199 348 216 350.5 Q233 353 237.5 355.5 Q242 358 244 359 Q259 361 283 361 L286 363 Q287 360 288 359.5 Q289 359 296 359.5 Q303 360 320 349.5 Q337 339 348 326 L343 324 L343 318 L317 318 L314 314 Q308 315 292 310.5 Q276 306 257.5 297.5 Q239 289 237 289 L216 294 L190 298 Q179 302 176 301 L187 290 L190 290 Q193 282 195.5 276 Q198 270 197.5 266.5 Q197 263 192 253 L185 230 Q181 221 182 220 L184 213 L207 213 L283 242 Q301 249 318.5 242.5 Q336 236 352 224.5 Q368 213 371 209 L379 191 Q380 187 380.5 186.5 Q381 186 378 182 L374 170 Q373 168 329 131 Q334 124 338 122 L358 110 L362 104 L356 91 Q349 93 348 93 L340 91 L331 95 Q314 94 300 88 L294 87 L287 84 Q282 85 274.5 82 Q267 79 255.5 78.5 Q244 78 220 66 L214 66 L203 60 Q183 50 166 57 Q165 52 165.5 49.5 Q166 47 166 46 L165 36 L168 25 L168 12 L172 1 Q180 0 186 0 Q192 0 197 1.5 Q202 3 205 3 Q220 7 228 10 L251 19 Q264 23 281.5 23.5 Q299 24 309 26 L325 25 Q339 25 345 24 Q349 31 357 32 Q364 28 366 30 Q367 26 368 25 Q369 24 380 18.5 Q391 13 397 11 Q403 9 426 -18 L423 -27 Q413 -30 407 -30.5 Q401 -31 385 -28 L354 -24 Q343 -27 317 -25 Q311 -26 284 -34 L276 -39 L273 -38 Q268 -43 257 -44 L229 -49 Q222 -50 205.5 -47 Q189 -44 181 -45 L184 -57 Q178 -60 178 -61 L177 -66 Q171 -65 168.5 -63.5 Q166 -62 161 -50 L146 -29 Q138 -19 132 -0.5 Q126 18 125 29 L121 66 Q120 72 120 75 L121 150 ZM168 112 Q189 107 258 151 L270 158 Q280 164 297 182 Q314 200 316 204 Q314 204 312 203.5 Q310 203 300.5 196.5 Q291 190 262.5 182 Q234 174 217 179 Q200 184 178 200 Q173 184 173 176 L172 160 L171 155 L170 136 L166 121 L168 112 Z" /><glyph glyph-name="uni5F00" unicode="&#x5f00;" d="M69 152 Q72 155 77.5 156.5 Q83 158 91 170.5 Q99 183 122 205 Q145 227 148.5 230 Q152 233 153.5 235.5 Q155 238 158.5 255.5 Q162 273 167.5 278.5 Q173 284 174 286 L173 297 L174 298 L204 279 L238 308 Q236 309 235 309.5 Q234 310 226 306.5 Q218 303 202 310 L180 316 Q167 321 144 358 L144 360 Q152 357 158 358 Q164 358 173 360 L241 378 Q252 380 275 382 Q294 383 303 378 Q312 373 321 370.5 Q330 368 334 362 L337 352 L342 343 Q342 340 342.5 336.5 Q343 333 342 331 Q340 326 324.5 315 Q309 304 299 299 Q299 296 300 296 L312 286 Q318 279 328 247 Q331 245 333 244.5 Q335 244 341.5 246 Q348 248 385 249 Q408 234 409 231 L410 224 L419 219 L420 214 Q415 211 413 211.5 Q411 212 404.5 213.5 Q398 215 390 213 L379 209 L369 207 L360 203 L344 198 Q343 184 343 178 L343 170 Q342 165 342 158 Q341 155 342 154 L343 151 L340 143 Q340 138 339.5 134.5 Q339 131 340 131 L344 124 L340 120 Q340 116 340.5 114 Q341 112 340 98 L339 74 Q338 68 337 66 L332 59 L334 46 L332 30 L333 23 L329 20 L327 12 L330 9 Q328 6 328 5 L326 -9 L323 -20 L320 -41 L317 -47 L311 -65 L306 -65 Q303 -69 303 -73 L303 -83 L299 -85 L293 29 L293 48 L292 71 L293 116 L293 129 Q293 135 292.5 140 Q292 145 293 148 L296 169 L295 177 Q290 180 285 176 Q282 174 259 167 L248 163 Q195 144 192.5 141 Q190 138 188.5 123.5 Q187 109 186.5 103 Q186 97 189 89 L191 82 L192 68 L196 45 L196 39 L190 36 L189 15 Q181 14 179 14.5 Q177 15 160 35 L151 46 Q154 51 153.5 54.5 Q153 58 149 70.5 Q145 83 145 90 L144 102 L139 119 Q125 112 108 108 Q91 104 90 105 Q78 105 73.5 110.5 Q69 116 69 147 L69 152 ZM90 160 Q100 162 105 164 L121 172 Q129 176 143 180 Q146 185 147 189 L149 201 L152 214 Q149 213 148 213 L115 186 Q86 166 89 162 L90 160 ZM195 201 L199 201 Q212 226 215.5 235.5 Q219 245 223 248.5 Q227 252 227 253 L226 255 Q198 241 197 218 L195 201 ZM210 207 Q216 207 219 209 L230 214 L239 215 Q240 215 246 219 L276 229 L293 236 Q291 241 291 244 L287 254 L285 266 L268 283 Q251 272 246.5 267.5 Q242 263 227.5 241.5 Q213 220 213 217 L210 207 Z" /><glyph glyph-name="uni6469" unicode="&#x6469;" d="M37 38 Q47 37 52 40 Q57 43 63.5 54 Q70 65 78 75.5 Q86 86 89 93 L92 104 Q92 104 99 117 Q106 130 117 164 Q128 198 135.5 220.5 Q143 243 163 287 Q152 288 147.5 289.5 Q143 291 131 301.5 Q119 312 120 315 L120 318 Q121 319 122 319.5 Q123 320 131.5 318.5 Q140 317 162 324 Q184 331 205 339.5 Q226 348 247.5 349.5 Q269 351 263 359 L257 371 Q229 371 229 372 L207 390 Q224 402 229 403 L239 404 Q244 406 245 406 Q246 405 265.5 397.5 Q285 390 292.5 382.5 Q300 375 304 364.5 Q308 354 310 353 L328 351 L333 350 L348 349 Q350 348 361.5 341 Q373 334 375.5 332 Q378 330 379 321 Q380 312 368 320 Q363 322 346.5 324 Q330 326 319 327.5 Q308 329 307 330 Q304 330 290 326 L280 325 L270 321 L254 316 Q250 314 251 313 L252 311 Q259 315 272 302 Q283 289 285 279 Q286 266 281 262 Q276 258 277 258 L280 256 Q289 264 305 268 Q321 272 321 275 L321 279 L309 288 L322 288 Q313 299 305 295 L307 289 Q287 289 286 294.5 Q285 300 286 302 Q287 310 293.5 315.5 Q300 321 308 322 Q313 322 324.5 317.5 Q336 313 342 305.5 Q348 298 350 291.5 Q352 285 355 283 Q364 286 368 285.5 Q372 285 402 263 L399 260 Q387 260 382 260 L360 259 L354 259 Q354 251 353.5 249 Q353 247 352 229 Q354 227 356 227 L379 227 Q390 226 404.5 216 Q419 206 423 200 Q427 194 426.5 187 Q426 180 424 174 Q419 175 417 176 L403 183 Q387 187 358 178 Q362 175 365 172.5 Q368 170 372 163 Q376 156 375.5 149.5 Q375 143 361 138 L345 134 L338 132 L326 131 L312 127 L315 116 Q346 116 366 124 Q383 113 384.5 109.5 Q386 106 387 103 L387 95 Q373 95 347 85 Q321 75 322 72 L325 66 Q333 64 337 64.5 Q341 65 345 66 L355 69 L366 69 Q368 69 380 77 Q385 72 388 72 L411 75 Q418 72 430.5 59 Q443 46 444 44 Q445 42 444.5 37.5 Q444 33 442 30 Q432 33 427 34 L408 34 L392 38 Q390 38 374 38 L340 38 L331 35 Q332 14 332.5 7 Q333 0 333 -3 Q332 -12 332 -18 L326 -51 Q324 -64 321.5 -68.5 Q319 -73 313.5 -76 Q308 -79 304 -80 L286 -84 L274 -89 L249 -90 L232 -93 Q214 -94 209.5 -95 Q205 -96 195 -96 Q176 -97 167 -93 L167 -87 Q190 -85 204 -78 L234 -60 Q282 -35 287.5 -28.5 Q293 -22 293 -3 L293 25 Q290 26 287 23 Q284 20 265.5 18 Q247 16 235.5 6.5 Q224 -3 222 -3 L207 -1 L194 -5 Q192 -6 190 -5 Q175 -5 172 -2 L165 3 L152 12 L144 27 L155 39 Q162 36 167 27 Q177 32 188.5 35.5 Q200 39 208 45 L221 50 L238 57 L238 62 Q217 67 216 70 L193 97 Q193 99 194 101.5 Q195 104 237 138 Q234 144 232 147 L225 153 L220 163 Q213 156 211 153 L199 133 L196 130 Q187 133 180 137.5 Q173 142 172.5 146 Q172 150 188 175 L201 194 L210 208 L182 216 Q179 212 179 211 L166 158 L149 117 L147 107 Q144 96 134 80.5 Q124 65 120.5 58.5 Q117 52 113 50 L107 47 L96 36 L83 31 L76 23 Q72 24 70 25 L45 23 Q37 26 37 35 L37 38 ZM188 245 Q239 267 241 276 L229 292 L224 299 Q200 290 197.5 287.5 Q195 285 195 278 L194 262 L188 245 ZM203 96 Q214 91 233 95 L263 106 Q278 110 277 114 L276 117 Q274 117 274 118 L238 106 L227 107 L213 103 L203 101 L203 96 ZM243 288 L247 299 L241 305 Q233 309 233.5 298 Q234 287 243 288 ZM259 156 L262 154 Q296 165 319 179 L312 196 Q299 189 274 169 L268 167 L261 174 L259 156 ZM263 53 L289 59 L289 64 Q279 60 272.5 59 Q266 58 263 53 ZM263 199 Q275 212 287 222.5 Q299 233 304 242 Q271 230 265.5 222 Q260 214 260.5 206.5 Q261 199 263 199 ZM352 192 Q355 192 357 193 L360 195 L371 200 Q367 207 352 205 L352 192 Z" /><glyph glyph-name="uni725B" unicode="&#x725b;" d="M70 124 Q72 123 75.5 116.5 Q79 110 92 110 Q102 109 144 131.5 Q186 154 199.5 161 Q213 168 231 173 L249 181 Q263 183 264 184.5 Q265 186 266 192 L266 227 Q262 230 260.5 229.5 Q259 229 254 225.5 Q249 222 231.5 214.5 Q214 207 205 208 Q213 213 228.5 226.5 Q244 240 244 242 L244 244 L240 244 L236 247 Q231 245 227 241.5 Q223 238 217.5 236.5 Q212 235 196 226 L176 216 L157 204 Q153 204 151 203.5 Q149 203 146 201.5 Q143 200 140 201 L138 201 Q136 201 132 204 Q128 207 123 209.5 Q118 212 115 219 Q112 226 113 229 Q113 247 185 299 L185 304 L170 319 Q180 318 187.5 316 Q195 314 215 302.5 Q235 291 238.5 286.5 Q242 282 245 281 Q250 282 258 284 L262 287 Q275 287 275 297 L275 313 L278 316 L278 334 Q280 336 281 338.5 Q282 341 282.5 348 Q283 355 277.5 359.5 Q272 364 268 366 L253 368 Q248 369 243.5 374.5 Q239 380 239 383 L238 392 Q272 398 303 372 Q320 357 324.5 345 Q329 333 330 321.5 Q331 310 330 307 L328 303 L327 292 L324 285 Q339 274 353 255 L347 247 L342 247 L339 243 Q331 252 326 245 L324 236 L321 222 L324 219 L328 219 Q335 210 347 213 L351 210 L361 210 Q372 198 391.5 187.5 Q411 177 410 171 L409 165 Q404 158 391 161 L387 158 Q376 157 362 155.5 Q348 154 336 154.5 Q324 155 318 150 Q318 139 317.5 134 Q317 129 317.5 124.5 Q318 120 315 114 L318 105 L316 100 L316 85 L315 80 L317 71 L311 60 Q312 48 311.5 41 Q311 34 308 25 Q308 21 310 22 Q307 16 307 13 L307 -13 L303 -20 Q304 -23 304.5 -24.5 Q305 -26 301 -42 L300 -59 L298 -75 L298 -86 L297 -99 L292 -99 Q290 -81 288 -72 L283 -52 L281 -30 L278 -28 L274 -8 L263 102 L262 105 L264 107 Q263 112 263.5 120 Q264 128 263 131 L260 136 L255 136 Q252 132 246 132 L227 121 L213 115 Q210 112 209.5 111.5 Q209 111 205 110.5 Q201 110 190 103 L170 93 L157 85 Q156 84 140 81 L125 76 Q121 75 107.5 79.5 Q94 84 87 87.5 Q80 91 75 102 Q70 113 70 116 L70 124 ZM322 192 L340 194 Q334 199 328 201 L326 205 Q322 202 321 200 Q320 198 321 196 L322 192 Z" /><glyph glyph-name="uni5973" unicode="&#x5973;" d="M149 187 Q152 192 154 196 L156 212 Q156 213 159 221 L165 241 L173 263 L177 283 Q178 289 190 313.5 Q202 338 207 346.5 Q212 355 218 367 Q200 379 189 383.5 Q178 388 181 391 L182 392 Q188 390 199.5 389.5 Q211 389 216 386 L222 386 L225 383 Q229 382 240 378 L253 373 L266 359 L274 351 Q277 346 277.5 341.5 Q278 337 276 329.5 Q274 322 266.5 314.5 Q259 307 257 300 L249 295 Q243 291 245 288 L246 285 Q242 280 241 278 L227 250 L219 239 L213 223 Q230 232 238 232 Q241 231 254 228 L275 223 Q290 218 295.5 213 Q301 208 308.5 198.5 Q316 189 323 185 L333 179 L369 149 Q383 138 384 137 Q385 136 392 125.5 Q399 115 399.5 114 Q400 113 404 101 L409 87 Q411 80 411 73 L408 49 L408 41 Q407 36 403.5 27 Q400 18 379.5 6.5 Q359 -5 356 -9 Q345 -13 338.5 -16 Q332 -19 326.5 -23 Q321 -27 314 -30 L290 -45 L277 -49 L269 -55 Q265 -58 261 -57 L250 -56 Q230 -60 200 -81 L188 -83 L183 -85 L177 -92 L173 -92 L172 -86 L169 -86 L150 -99 L148 -97 Q150 -92 152 -90 L166 -80 L173 -70 Q174 -69 181.5 -63.5 Q189 -58 204.5 -43 Q220 -28 231 -20.5 Q242 -13 243 -12 L255 0 Q267 7 274.5 14.5 Q282 22 300.5 33.5 Q319 45 340 62.5 Q361 80 363 86 L367 99 Q365 100 365 102 L357 123 L342 139 L342 142 Q329 151 321 158 Q322 155 322.5 153.5 Q323 152 319 145.5 Q315 139 311.5 127 Q308 115 300 106 Q302 103 310 96.5 Q318 90 319 88 Q320 86 323 76 Q311 66 305.5 58.5 Q300 51 296 47.5 Q292 44 285.5 44.5 Q279 45 278 45 L275 42 L265 41 L260 39 Q256 37 251 38 L232 24 Q224 23 218 18 L212 18 L209 15 L201 15 L198 12 Q193 11 183.5 8.5 Q174 6 174 7 L169 9 L165 6 L162 6 L152 3 Q146 2 144 5 Q130 6 124 9 L105 17 L92 18 L84 25 Q84 35 84 46 Q84 57 87.5 67 Q91 77 105 96 Q119 115 130.5 128 Q142 141 144 149 L145 160 L147 172 L149 187 ZM147 27 L155 27 L158 29 L163 29 L165 32 Q172 33 197 52 L197 55 Q172 71 169 76 L148 101 Q136 93 122.5 78.5 Q109 64 104 61.5 Q99 59 98.5 55 Q98 51 99 49 Q99 38 100 35 Q101 32 109.5 27 Q118 22 134 23 Q141 23 147 27 ZM185 127 Q184 121 184.5 117.5 Q185 114 185 113 Q184 112 183 108 Q182 104 181.5 100.5 Q181 97 186 91 Q193 78 210 79 Q218 79 224 81.5 Q230 84 252 117 L265 139 Q272 151 273 153 L275 167 Q264 159 259 158 L247 155 L229 147 L217 143 L193 134 L185 127 ZM194 178 Q207 182 214.5 186.5 Q222 191 227 190.5 Q232 190 233 191 L236 194 Q236 194 236.5 193.5 Q237 193 240 194 L250 194 L253 197 L267 199 Q254 203 243 203 L240 206 L214 208 L206 202 Q197 193 199 190 L200 186 Q195 183 194 178 Z" /><glyph glyph-name="uni74F6" unicode="&#x74f6;" d="M65 50 L74 60 Q82 56 97.5 71.5 Q113 87 115.5 91 Q118 95 119 109.5 Q120 124 122 134 Q124 144 123.5 148.5 Q123 153 124 154 L127 161 L108 155 Q104 161 104 165 L100 182 L97 187 Q137 216 152.5 231.5 Q168 247 177 261.5 Q186 276 193.5 286.5 Q201 297 206 306 L208 307 Q212 313 207 311.5 Q202 310 198 306 Q194 302 189.5 299.5 Q185 297 185 296 L184 290 L177 279 L169 261 L166 260 L149 266 L142 267 Q138 268 132 280.5 Q126 293 126 297 L125 305 L130 310 L136 310 Q137 312 142 315 Q147 318 153 326.5 Q159 335 170 342 L175 323 Q205 339 215 339.5 Q225 340 226 341 L228 347 Q234 345 240.5 341 Q247 337 256 338 Q259 333 262 332 L272 327 Q276 322 283 300 Q295 300 309 306.5 Q323 313 350 338 Q359 330 372 331 Q375 325 382 324 L394 309 Q372 295 363 288 Q354 281 347.5 278 Q341 275 314 279 L302 271 L299 272 Q284 259 284.5 253 Q285 247 292.5 236 Q300 225 301 220 L301 212 L304 208 Q308 210 331.5 229 Q355 248 364 250 Q373 252 396 249 Q416 239 419 230 L420 220 L422 211 Q422 208 421 205 L406 183 Q400 174 395.5 154.5 Q391 135 389 128 L377 93 L375 76 L373 61 Q372 58 373 52 Q373 44 374 42 L377 34 L377 15 Q378 -3 401 -2 Q425 -2 448 13 Q438 39 436 44 L420 73 Q425 70 435 63 L452 53 L474 32 L492 22 Q500 14 500.5 7 Q501 0 497 -5 Q489 -18 475.5 -26 Q462 -34 432 -36.5 Q402 -39 400 -38 L386 -32 L375 -29 Q360 -24 341 9 Q336 7 335 6 L313 -15 Q309 -18 295.5 -26 Q282 -34 276.5 -39 Q271 -44 270 -43 L265 -39 Q264 -39 255 -35 Q246 -31 236 2 Q242 9 245.5 15.5 Q249 22 255 58 Q261 94 262 95 L263 110 Q256 108 254 107 L248 103 L234 94 Q233 83 233.5 72 Q234 61 233.5 54 Q233 47 232 36 Q231 25 230 21 L227 10 L226 -3 L223 -13 L222 -21 Q220 -28 211 -41 L211 -44 L206 -47 Q201 -41 199 -38 L188 -27 Q180 -19 182 -15 L185 -7 Q183 -5 184 -4 L186 1 Q186 6 186.5 11 Q187 16 186.5 23 Q186 30 187 31 L189 38 Q189 40 190 50 Q190 64 190 66 L189 70 Q174 64 157 50 Q154 33 153.5 24.5 Q153 16 152.5 8.5 Q152 1 154 -1 L158 -10 Q159 -15 163 -32 Q139 -22 129.5 -12.5 Q120 -3 114 23 L111 23 L96 6 Q77 19 73.5 23.5 Q70 28 65 50 ZM160 135 Q165 138 169 145 Q179 143 179.5 151 Q180 159 172 165 Q163 152 163 149 L160 135 ZM170 114 Q171 114 180.5 119 Q190 124 191.5 125.5 Q193 127 193 131 L192 141 Q178 130 170 114 ZM178 170 L188 158 Q196 169 195 173 L192 182 L178 172 L178 170 ZM213 230 L219 233 L252 233 Q254 232 255.5 230.5 Q257 229 260 231 Q260 224 259.5 220 Q259 216 256 212 L242 202 Q238 199 233.5 193 Q229 187 229.5 185.5 Q230 184 231 181 Q232 178 232 176 L232 164 Q232 162 233 162 L239 163 L245 161 Q250 160 264 162 L269 157 Q271 168 272 174 L269 233 Q268 233 269 234 L270 242 L270 252 Q270 258 274.5 263 Q279 268 280 269 Q289 272 300 284 L278 296 Q272 290 265.5 285 Q259 280 242.5 261.5 Q226 243 220 238.5 Q214 234 213 230 ZM277 15 Q280 16 282 18 L303 37 Q312 43 313 48 L313 55 Q313 62 312 63 L309 64 L309 73 Q310 73 311 72.5 Q312 72 312.5 66.5 Q313 61 321 58 Q322 51 332 46 Q333 47 333.5 48 Q334 49 333 57 Q332 65 332 71 L332 110 Q326 110 318.5 109.5 Q311 109 303 115 L302 118 L298 118 Q293 92 290.5 72 Q288 52 288 51 L277 15 ZM306 144 L306 161 Q309 157 311 156 L314 146 Q315 140 321 137 L332 132 L336 130 L340 132 Q343 145 345 152 L347 167 Q349 179 349 180 L348 189 Q336 178 329 179 Q326 179 321.5 180.5 Q317 182 309.5 181.5 Q302 181 302.5 178 Q303 175 303.5 173 Q304 171 302.5 164 Q301 157 300.5 152 Q300 147 302 147 L306 144 Z" /><glyph glyph-name="uni65E5" unicode="&#x65e5;" d="M108 279 Q132 258 136 257 Q140 256 144.5 255.5 Q149 255 151 255 L161 250 L163 252 Q165 249 167 249 L188 238 Q205 227 210 215 Q215 203 214.5 200.5 Q214 198 213 194 Q212 190 213 185 L213 182 Q226 181 242 181.5 Q258 182 273 174 Q288 166 289 162 L290 155 L294 152 L294 147 Q289 144 285 140.5 Q281 137 280 137 L262 140 L255 135 Q252 133 242.5 130.5 Q233 128 225.5 122.5 Q218 117 218 118 L226 128 L233 139 Q222 142 211 143 Q209 132 207.5 113.5 Q206 95 205 90 Q204 87 205 69 L203 45 Q220 49 232.5 49.5 Q245 50 250 53.5 Q255 57 256 58 L268 54 L276 54 Q288 53 294 47.5 Q300 42 301 43 Q302 43 302.5 49 Q303 55 303 56 L301 61 L301 66 L297 141 Q295 166 295.5 182.5 Q296 199 297.5 210 Q299 221 299 223 L297 234 L300 238 Q299 243 299.5 247.5 Q300 252 301 256 L303 263 L303 274 L306 281 Q306 281 302 296 Q293 294 290 293 L267 275 L245 263 Q240 256 231 257 Q192 259 183.5 286.5 Q175 314 173.5 315 Q172 316 173 317 L177 318 Q186 310 192 302 Q208 309 233.5 320.5 Q259 332 280 331.5 Q301 331 310 326 L320 321 Q331 315 350 290.5 Q369 266 365 249 L362 234 L365 232 L361 228 Q360 220 360.5 215 Q361 210 361 209 L359 204 Q358 202 358.5 199.5 Q359 197 359 182 Q358 165 358 162 L356 155 Q354 149 354.5 131.5 Q355 114 356 110 L363 47 Q364 34 363 12 Q362 -10 352 -28 L340 -50 L335 -50 Q332 -42 322 -45 Q321 -45 313.5 -37.5 Q306 -30 292 11 Q288 10 287 10 L283 7 L279 8 Q275 8 245.5 -7 Q216 -22 201 -21 Q183 -21 171.5 -9 Q160 3 157 14 Q154 25 154 26 L149 35 L149 54 L146 66 L146 80 L144 117 L146 123 Q146 126 147 134 L147 148 Q147 150 146.5 156 Q146 162 147 164 Q147 164 148.5 169.5 Q150 175 150.5 191 Q151 207 151 209 Q150 218 145 223 L134 230 Q130 232 126 238.5 Q122 245 114.5 259 Q107 273 107 275 L108 279 Z" /><glyph glyph-name="uni5C04" unicode="&#x5c04;" d="M72 -24 Q73 -19 74 -15 L75 -7 Q76 0 88 7.5 Q100 15 103 17 L119 30 L141 45 L152 59 Q148 60 146.5 60.5 Q145 61 139 57 Q133 53 124 53 Q99 51 88.5 66 Q78 81 79 90 Q79 97 85 103 L96 111 Q104 119 105.5 119.5 Q107 120 109 117 Q97 110 90 99 L91 92 Q107 96 125 108 Q121 119 118 128 Q117 143 116 161 Q115 179 116 189.5 Q117 200 117 202 L116 208 L119 218 Q119 218 118.5 226 Q118 234 120 240 L126 269 Q135 314 142 321 Q149 328 159 335.5 Q169 343 176.5 351.5 Q184 360 184 361 Q183 361 182 363 L162 367 L151 372 L144 373 Q155 391 173 391 Q178 390 200.5 377.5 Q223 365 226.5 357.5 Q230 350 230.5 345.5 Q231 341 229 334 Q222 314 213 313 L196 314 L189 308 Q189 305 194 306 Q200 309 203.5 309.5 Q207 310 229.5 298.5 Q252 287 254.5 283 Q257 279 258.5 275 Q260 271 262 269.5 Q264 268 263.5 267.5 Q263 267 262 266 Q260 265 261 256 L257 244 L256 232 L255 225 L259 223 Q254 205 254.5 197.5 Q255 190 254.5 187.5 Q254 185 255 185 L257 184 Q296 210 328 214 L331 217 L346 217 L349 220 L359 220 L361 222 Q361 233 362 241.5 Q363 250 363 253 Q362 260 359 267 Q356 274 349 286 L346 291 Q345 292 344.5 292.5 Q344 293 346 295 Q347 296 349 295 L364 271 Q367 273 368 274 Q369 275 370 288 L374 306 Q374 307 373.5 316 Q373 325 360 333 L345 339 L330 348 L327 342 Q321 347 321.5 353 Q322 359 336 360 Q344 360 364.5 349 Q385 338 401 313 Q417 288 417 277 Q416 274 414 263.5 Q412 253 411 247 Q410 241 409 237.5 Q408 234 409 233 L411 227 L418 229 Q423 224 426 222 L443 213 Q471 196 476 188 L470 187 L466 190 L464 188 L450 192 Q449 191 445.5 190 Q442 189 439 189 Q434 188 424.5 189.5 Q415 191 409 191 Q404 190 403 188.5 Q402 187 401.5 183 Q401 179 402 176 L403 171 Q403 169 403 166 L402 151 Q401 140 404 115 Q412 28 412 0 Q411 -13 409 -35.5 Q407 -58 401 -67.5 Q395 -77 384 -77 L382 -72 L370 -76 L372 -68 Q360 -62 354 -57 Q348 -52 337.5 -39.5 Q327 -27 326 -22 L321 -8 L295 46 L290 71 L284 92 Q283 96 281 111.5 Q279 127 280 133 L280 140 Q283 143 286 144 L320 129 L328 129 Q335 128 349 107.5 Q363 87 360 71 L356 45 L345 44 L343 50 Q333 45 323 54 Q315 59 312 65.5 Q309 72 308.5 78 Q308 84 309 86 L309 97 Q309 105 308 110 Q306 117 300.5 119 Q295 121 293 120 Q290 113 290.5 110 Q291 107 293 101 Q295 95 298.5 83.5 Q302 72 305 67 L317 39 Q321 28 322.5 24.5 Q324 21 361 -23 L366 -23 Q368 -20 368 -18 L367 -14 Q366 -13 367 -3.5 Q368 6 369 13 L365 84 L361 156 L359 180 Q338 173 331 166 L317 153 Q308 148 287 148 Q273 147 263 154.5 Q253 162 254 157 Q254 156 255 155 L264 146 Q267 141 268 134 L255 120 L255 114 L251 110 L256 14 Q257 -12 258 -16 L267 -70 Q266 -74 267 -79 L262 -88 Q241 -82 223.5 -61.5 Q206 -41 177 19 Q170 11 167 8 L150 -3 L140 -13 Q133 -20 122 -20 Q117 -28 106 -25 Q98 -31 92 -27 L84 -31 L79 -26 L75 -27 L72 -24 ZM153 128 Q159 129 163 131 L194 143 L210 143 Q212 149 212 150 L209 160 Q201 156 198 156 L183 153 Q175 150 174.5 149.5 Q174 149 159 154 Q155 152 154.5 151 Q154 150 154.5 147 Q155 144 153 139.5 Q151 135 152 135 L153 128 ZM157 192 Q161 188 163 187.5 Q165 187 170.5 189.5 Q176 192 197 193 L209 183 Q212 193 213 199 L213 218 Q167 213 157 192 ZM156 207 L164 206 Q167 211 176 216 L164 223 L160 219 L156 207 ZM165 296 L186 304 Q178 308 171 305 L165 296 ZM166 246 Q171 245 175 245 L188 245 Q192 244 216 233 L216 250 Q217 253 217.5 254 Q218 255 217.5 256.5 Q217 258 218 259 L220 271 Q220 273 219.5 276.5 Q219 280 217.5 281 Q216 282 206 274 Q188 260 185 262 L174 265 Q168 255 166 246 ZM221 -28 Q222 -27 222.5 -26 Q223 -25 220.5 -21.5 Q218 -18 220 -4 L217 17 L216 36 L214 44 L213 59 Q210 63 209 57 Q201 46 192.5 38.5 Q184 31 186 20 Q188 9 221 -28 Z" /><glyph glyph-name="uni795E" unicode="&#x795e;" d="M158 336 Q156 339 155 341 L147 348 Q136 356 134 368.5 Q132 381 130.5 383 Q129 385 130 386 L133 388 Q143 379 149 378 L170 377 Q190 373 200.5 362 Q211 351 221 329 L210 329 Q207 326 206 326 L194 327 Q148 326 116 302.5 Q84 279 77.5 262 Q71 245 72 238 L72 228 Q79 231 83 233 L110 252 Q115 255 158 279 Q162 276 165 276 L185 275 Q191 273 199 266.5 Q207 260 207.5 255 Q208 250 203.5 238.5 Q199 227 197.5 220 Q196 213 192.5 205 Q189 197 192 198 Q202 205 210.5 214 Q219 223 217 230 L214 242 L220 244 L218 253 Q223 251 225 249 L226 245 L235 232 L240 216 L244 213 L246 195 Q250 194 252.5 194.5 Q255 195 258.5 194.5 Q262 194 266 196 L283 199 L302 207 L303 239 Q286 230 275.5 229.5 Q265 229 250.5 236 Q236 243 230 257 Q235 254 238 254.5 Q241 255 262.5 266.5 Q284 278 294.5 281 Q305 284 307 286.5 Q309 289 311 301.5 Q313 314 314 317 L322 347 Q317 354 315 356 L297 353 Q274 351 272 349 Q270 347 269 349 Q263 357 262.5 362 Q262 367 268.5 375 Q275 383 277 388 Q303 393 322.5 377.5 Q342 362 349.5 348 Q357 334 357.5 327 Q358 320 358 319 L355 301 L359 289 Q375 282 389.5 274 Q404 266 415 269 Q420 264 423 262 L431 251 L446 237 Q450 230 456 206 Q446 199 441 193.5 Q436 188 432 174 L423 140 Q414 111 403 103 L387 90 L392 83 Q378 78 363 75.5 Q348 73 347 70.5 Q346 68 346 60 L345 51 L345 32 L340 0 L339 -19 L336 -31 Q335 -32 329 -68 Q323 -75 324 -78 L325 -83 L325 -100 L320 -100 Q317 -92 316.5 -80.5 Q316 -69 316 -68 L313 -63 Q312 -63 312 -45 L311 -36 Q310 -28 310 -27 L308 -20 Q306 -15 307.5 -3.5 Q309 8 308 13 L305 20 Q304 20 305 33 L304 47 Q304 56 302.5 58.5 Q301 61 300 62 Q297 63 289.5 58 Q282 53 279 54 Q272 54 268.5 57 Q265 60 263 64 L250 86 L236 100 Q221 117 217 165 L215 186 Q206 171 207 165 L207 162 Q204 160 203.5 159 Q203 158 199 152.5 Q195 147 195 146 L194 138 Q193 137 189 131 L181 116 L177 112 Q170 105 171 87 L172 53 Q172 32 177.5 26.5 Q183 21 183.5 20 Q184 19 185 17 L185 11 L190 -13 Q179 -14 170.5 -8 Q162 -2 159 3 L152 15 L140 24 L139 26 Q143 32 143 37 L142 43 L139 73 L138 74 Q132 67 123.5 59 Q115 51 106 37 L102 37 Q101 37 92 46.5 Q83 56 81.5 58.5 Q80 61 80 64 L79 73 L72 82 L72 87 Q79 90 84 93.5 Q89 97 106 132 L116 151 L144 211 L147 225 Q128 209 114 193 Q100 177 92 179 Q87 179 77.5 186 Q68 193 62.5 200.5 Q57 208 57 223 Q57 226 57.5 228.5 Q58 231 63 241 L68 253 Q78 277 109 301 L145 326 L158 336 ZM255 117 Q258 116 268 125 L283 144 Q290 151 289 153 L288 155 Q269 156 267 159 L247 171 Q247 163 247.5 160.5 Q248 158 247.5 148.5 Q247 139 255 117 ZM283 107 Q293 106 300 110 L299 121 L294 121 L283 107 ZM344 131 Q355 135 356.5 137 Q358 139 361 147 Q353 152 344 131 ZM349 215 Q355 212 359 210 L370 201 L387 192 Q394 220 405 244 Q397 252 382.5 256.5 Q368 261 355 255 Q355 250 355 249 L354 246 Q353 245 352.5 241 Q352 237 350 230.5 Q348 224 349 223 L349 215 Z" /><glyph glyph-name="uni72EE" unicode="&#x72ee;" d="M5 309 Q11 305 22.5 298 Q34 291 43 291 Q48 290 65.5 294.5 Q83 299 108 305 L124 307 Q136 309 137 309 L147 305 Q150 311 152 314 L162 325 Q164 328 171 339 Q178 350 178.5 354.5 Q179 359 168 363 L156 366 Q131 376 130 377 L130 384 L135 379 Q168 379 178 375 L191 366 L205 362 Q207 360 212.5 353 Q218 346 218.5 344 Q219 342 218.5 335 Q218 328 217 326 Q216 319 215 313 Q214 307 207 298.5 Q200 290 201 289 L201 287 Q227 287 244 269 L248 269 Q245 273 246 274 L251 283 Q252 261 252.5 249.5 Q253 238 254 233 L250 197 Q250 173 249 170 L246 164 Q244 160 245 159 L246 149 Q243 148 243 147 L243 132 L241 128 L242 112 L240 107 L237 97 Q225 95 219 103 L212 113 Q206 120 207 122 L209 126 L206 129 L211 131 Q212 160 215 173.5 Q218 187 217.5 195 Q217 203 219 205 L222 208 Q221 218 222 224 L226 247 Q226 248 225.5 257.5 Q225 267 223.5 270.5 Q222 274 215 278.5 Q208 283 200 281 Q202 275 203 273 L197 232 L199 225 Q195 222 196 222 L200 219 L217 247 L220 247 L218 237 L222 233 Q216 226 212.5 221 Q209 216 207 203 Q205 190 205 188 L193 160 L192 144 L189 141 Q189 136 189.5 131 Q190 126 188 119 Q186 112 185.5 110 Q185 108 187 97 L189 67 L191 60 L192 47 L194 34 Q194 25 197 17 L194 8 L194 -6 L189 -11 Q184 -10 182.5 -9.5 Q181 -9 178 -7 Q175 -5 174 -3 L166 5 L158 10 Q158 24 158.5 32 Q159 40 158 45 L153 58 L147 82 Q146 81 145 82 Q144 81 142.5 77 Q141 73 138 70 L122 42 L119 34 L107 18 Q105 13 104 13 Q103 12 99.5 13 Q96 14 93 13 Q90 21 85.5 29.5 Q81 38 81 41 L80 49 L117 142 L129 171 L140 206 Q141 208 143 211 Q145 214 145 215 L141 219 Q114 188 86 168 Q75 179 71.5 186 Q68 193 68.5 197 Q69 201 76 214 Q83 227 91.5 239.5 Q100 252 104 254 Q108 256 108 257 L106 259 L96 259 L93 256 L70 256 L66 259 Q32 257 5 309 ZM281 346 Q277 351 278 352 L277 363 L271 363 L259 346 Q258 348 258 349 L264 363 Q264 363 264.5 367.5 Q265 372 267 373 L278 371 L280 372 Q301 368 307.5 355 Q314 342 314.5 336 Q315 330 316 329 L318 326 L316 322 L320 314 Q355 330 388 332 Q397 332 403 328 L413 318 L424 310 Q426 306 426 303 Q425 301 425 299 L409 283 L393 263 Q397 257 398 255 L394 223 L397 215 Q404 215 412.5 218 Q421 221 422 221 Q428 220 436 212.5 Q444 205 454.5 196 Q465 187 467 186 L459 146 L459 142 Q458 140 455.5 136 Q453 132 447 120.5 Q441 109 423 94.5 Q405 80 399.5 71.5 Q394 63 394 43 Q393 37 393.5 27.5 Q394 18 393 15 L392 12 L391 0 L387 -9 L384 -36 L382 -40 L382 -49 L379 -52 Q378 -53 379 -58 L377 -70 L378 -73 L375 -74 L374 -70 L363 -102 L360 -102 Q360 -100 359.5 -97 Q359 -94 360 -93 L363 -88 L362 -84 Q360 -77 361 -58 L361 4 Q362 39 360.5 47 Q359 55 360 57 L363 85 Q362 85 359 91.5 Q356 98 355 107.5 Q354 117 352 121 Q350 125 350 126 L350 131 L348 134 L344 130 Q344 128 345 128 L338 119 L323 103 L312 104 Q304 110 301.5 115 Q299 120 298.5 133 Q298 146 302.5 162 Q307 178 317.5 200 Q328 222 337.5 237.5 Q347 253 350 260 Q354 261 357.5 267.5 Q361 274 362 276 L363 283 L355 285 Q355 281 354 281 L351 281 L347 287 L315 276 Q311 249 310.5 238.5 Q310 228 310 225 L306 203 Q306 194 305 193 L302 190 Q301 188 301.5 185 Q302 182 302 179 Q301 172 297.5 159 Q294 146 294 145 L292 125 Q290 121 289 118 Q288 115 289 113 L290 100 L293 97 Q292 93 292 91 L294 74 L294 58 L291 55 L291 51 Q287 50 283.5 49.5 Q280 49 275 55 L266 66 Q260 70 262 71 L265 72 Q260 82 256.5 98.5 Q253 115 254 123 L255 130 L257 169 L265 222 L273 271 Q273 273 274 285.5 Q275 298 276.5 307 Q278 316 279 319 L279 340 L281 346 ZM348 194 L362 199 Q364 202 365 204 L364 220 L364 222 L360 222 Q352 210 348 194 ZM395 131 L398 131 Q433 174 434 180 L435 192 Q428 191 426 191 L413 186 Q402 184 400 179 L400 160 L398 149 L399 140 L395 131 Z" /><glyph glyph-name="uni5341" unicode="&#x5341;" d="M176 206 L184 205 L188 208 Q190 207 196.5 208.5 Q203 210 216 209.5 Q229 209 243 215 Q244 224 245 229 L245 269 L247 288 L248 314 Q228 328 226 331 L211 351 Q204 355 203 359 Q211 358 219 358 Q223 357 225 357.5 Q227 358 228 358 L238 353 L267 338 Q283 344 293.5 323 Q304 302 305 297 L306 286 L308 280 Q308 277 310 256 L312 233 L310 217 L312 215 Q319 219 323 220 L330 219 Q331 218 347.5 220 Q364 222 380 221 L383 218 L410 218 Q411 215 412.5 214.5 Q414 214 428 218 Q467 188 468 183 L470 173 L467 170 L462 170 Q460 172 459 173 L439 175 L435 178 Q433 178 421 179 L407 181 L336 182 L333 180 L317 181 L310 174 L315 168 L311 164 Q311 158 310.5 154.5 Q310 151 308 139 L310 128 L310 118 L307 106 Q306 104 307 103 L308 93 Q308 88 308 82 Q307 76 305.5 69.5 Q304 63 305 63 L307 46 Q306 45 303.5 41.5 Q301 38 302 38 L304 35 L302 32 L305 29 L302 20 L303 10 L298 8 L301 5 L299 2 Q299 0 300 -3 Q301 -6 301.5 -9 Q302 -12 300 -17 L294 -31 L291 -47 L286 -58 L279 -90 L273 -98 Q265 -75 262 -61 Q259 -47 256.5 -39.5 Q254 -32 254 -29 L254 -20 Q253 -20 251.5 -15.5 Q250 -11 249 -1 Q248 9 247 15 L245 22 Q244 24 244 42 L240 90 L241 101 L240 117 Q239 169 239 170 L238 171 Q230 168 227 168 L202 162 Q182 155 152 141 L154 135 Q147 134 145 133 L132 123 Q126 119 118 119 Q107 118 79 134 L56 146 Q39 155 38.5 162 Q38 169 111 189 L176 206 Z" /><glyph glyph-name="uni624B" unicode="&#x624b;" d="M66 90 Q75 86 76 87 Q76 87 83 90 L102 92 Q116 94 134 104 L185 133 Q232 160 253 165 Q274 170 279 175.5 Q284 181 283 186 L279 203 Q242 194 233 189 Q224 184 214 182 Q204 180 204 181 L200 184 Q211 185 222 195 Q188 199 179 210 L172 223 L158 244 L162 244 Q171 235 179 234 Q188 232 224.5 249.5 Q261 267 270 268 Q270 268 271 268 L274 267 Q276 267 277 269 Q277 271 273 272 L270 280 Q264 281 242 278 L238 271 Q233 282 234 286 L235 293 L242 295 Q240 295 240 296 L233 294 Q230 293 212 293 L199 293 L188 288 L185 294 Q171 291 155 284 L148 288 Q149 290 149.5 291 Q150 292 156 295.5 Q162 299 170.5 307.5 Q179 316 193.5 324.5 Q208 333 220.5 341.5 Q233 350 244 355.5 Q255 361 256 362 L264 370 L254 374 Q269 379 288 372 L290 374 Q326 359 329 357 L342 338 Q350 326 349 325 L342 314 Q330 313 322 314 Q319 313 313 311 Q312 310 306 311 L288 305 L275 304 Q253 300 242 297 Q253 294 261.5 293.5 Q270 293 272 293 L306 274 L319 274 L328 270 Q337 269 342 265 Q356 262 367 241 Q355 230 342 231 L330 223 L326 214 Q342 208 361 205.5 Q380 203 387.5 200 Q395 197 405 197 Q405 192 409 192 L414 187 L422 184 Q429 175 439 168 L439 162 L416 163 Q409 170 406.5 171 Q404 172 392.5 172.5 Q381 173 378 171 Q375 169 364 168 L351 162 L330 152 L329 151 Q329 142 328.5 130 Q328 118 331 112 L334 104 L335 92 L338 81 Q338 80 337 68 L337 44 Q336 43 335 37.5 Q334 32 333.5 23 Q333 14 332.5 9 Q332 4 330 0 L320 -22 Q310 -44 302 -51 L286 -61 Q280 -65 278 -65 L265 -63 Q254 -66 243.5 -70 Q233 -74 201 -72 Q177 -72 177 -71 L176 -67 Q161 -67 147 -59 Q162 -58 184.5 -44 Q207 -30 228 -20 Q249 -10 254 -5 Q259 0 267 16.5 Q275 33 276 35 L280 55 Q282 61 283.5 71 Q285 81 286 87.5 Q287 94 287 99 L286 104 L282 132 L270 127 Q269 126 256.5 118.5 Q244 111 224.5 100.5 Q205 90 189.5 79 Q174 68 164 66 L128 62 Q108 58 106 59 Q100 59 78 67 Q76 70 71 76 Q66 82 66 85 L66 90 ZM361 195 Q357 202 354 203 L335 189 L340 190 L359 192 L361 195 Z" /><glyph glyph-name="uni53CC" unicode="&#x53cc;" d="M134 136 Q113 153 105.5 166.5 Q98 180 94.5 183.5 Q91 187 70 193 Q71 199 77 199 Q90 198 105 193.5 Q120 189 130 181 Q140 173 143.5 172.5 Q147 172 152 182 Q154 186 160 207.5 Q166 229 169 235 Q172 241 172 243 L169 249 Q166 245 165 243 L155 225 Q150 219 140.5 218 Q131 217 107 233.5 Q83 250 83 251 L76 262 Q87 265 92.5 268 Q98 271 109.5 282.5 Q121 294 148.5 311.5 Q176 329 199.5 319.5 Q223 310 245 289 Q256 293 261 296 L280 311 Q301 327 338 328 Q359 328 367 324 Q375 320 383.5 309.5 Q392 299 400 297 Q400 296 401 294.5 Q402 293 404.5 289 Q407 285 407.5 282.5 Q408 280 406 278 L397 268 L387 249 Q374 229 373 221 L370 204 L365 194 Q360 185 358.5 172 Q357 159 352.5 146 Q348 133 349 132 Q349 128 357.5 116 Q366 104 369.5 100.5 Q373 97 380.5 91 Q388 85 395 82 L419 71 Q432 63 449.5 46.5 Q467 30 473 15 Q479 0 478 -7 L477 -18 Q468 -15 457.5 -12 Q447 -9 443 -7 Q439 -5 439 -4 L431 -3 Q429 -3 416 2 L394 9 Q388 11 364 25 Q340 39 338 42 L324 56 Q320 55 319 54.5 Q318 54 316 50.5 Q314 47 304 38 L294 28 Q279 13 246 7 Q242 10 240 11 L212 10 L203 18 L193 17 L191 21 Q177 24 176 27 L163 43 Q143 22 131.5 16 Q120 10 112.5 5 Q105 0 104 0 L91 1 L79 -3 L72 -3 Q66 0 64 2 L45 11 L39 15 Q38 22 38 25.5 Q38 29 38 30 Q38 30 41.5 27 Q45 24 49 25 Q55 25 76 45.5 Q97 66 102 73 L111 94 Q113 98 121.5 111 Q130 124 131 125 L134 136 ZM192 33 L195 36 Q216 37 220 50 Q203 61 185 74 Q177 69 176 66 L172 57 L165 47 Q164 39 192 33 ZM231 57 Q234 57 235 57.5 Q236 58 244 66 L254 74 Q255 74 261 82.5 Q267 91 268 92 L273 103 L284 120 Q285 123 285.5 127 Q286 131 279 145 Q272 155 266.5 169.5 Q261 184 258 186.5 Q255 189 240 197.5 Q225 206 220 207 Q217 205 217 204 L218 197 Q217 196 215 193 Q213 190 212 178 L205 147 Q203 140 204 134 Q204 128 205 124 Q206 120 212 111 Q218 102 220 97 L223 85 L231 57 ZM226 239 Q232 235 242.5 231 Q253 227 269.5 217 Q286 207 304 182 Q305 182 305.5 182.5 Q306 183 305.5 185 Q305 187 308.5 191 Q312 195 313.5 205.5 Q315 216 317 221 L332 261 L337 278 Q332 280 327 275 Q304 253 299 251.5 Q294 250 284 251 Q271 251 265 254 Q259 257 250 271 L245 271 Q238 260 235 253.5 Q232 247 229.5 244 Q227 241 226 239 Z" /><glyph glyph-name="uni6C34" unicode="&#x6c34;" d="M83 156 Q83 160 83 163 L88 178 L93 198 Q102 169 107.5 168.5 Q113 168 119 175.5 Q125 183 179 205 Q184 201 196 200.5 Q208 200 216 193.5 Q224 187 224.5 181.5 Q225 176 221 169 L217 163 L180 92 Q182 94 198 108.5 Q214 123 221.5 138.5 Q229 154 230 157 L231 229 L233 246 L233 253 L238 285 Q240 310 241 313 Q242 316 242.5 320 Q243 324 234 334 Q225 344 219 358 L212 371 L211 375 Q216 373 217 372 Q218 371 221 368 Q224 365 227 363.5 Q230 362 247 356 Q264 350 277 338 Q290 326 301 303 Q300 300 295 294 Q290 288 285 269.5 Q280 251 279 233 Q278 215 277 210.5 Q276 206 277 206 L286 187 L342 249 Q332 260 318 267 L318 270 Q326 267 331 267 L355 266 L364 261 L374 261 Q388 260 397 246 Q406 232 407 225.5 Q408 219 373 195 L336 169 L308 153 Q336 110 348 102.5 Q360 95 368 92 L406 80 Q421 74 443 58.5 Q465 43 470 35 L491 2 Q489 2 488 3 L475 0 Q474 0 469 1 L449 1 Q447 1 415 12 L367 22 Q336 31 312 64 L292 93 Q283 104 278.5 113.5 Q274 123 270 123 Q272 105 271.5 97.5 Q271 90 270 84 Q271 78 272 76 L270 65 Q269 61 271 46 L272 13 L276 -13 Q275 -23 276 -23 L278 -31 L279 -44 L281 -50 L276 -56 L275 -75 Q270 -76 266.5 -78 Q263 -80 256.5 -75.5 Q250 -71 247 -66.5 Q244 -62 239.5 -57 Q235 -52 228 -42.5 Q221 -33 218.5 -27.5 Q216 -22 213 -13.5 Q210 -5 205 6 Q200 17 197 28 Q194 39 194 40 L190 46 Q159 6 153 -8 L142 -31 Q139 -32 127 -24 Q115 -16 115 -15 L111 -2 L105 6 L105 13 L101 16 L101 19 Q108 26 116 36 Q124 46 137 80.5 Q150 115 152 118 Q154 121 154 122 L152 128 Q132 111 125.5 110.5 Q119 110 110 114.5 Q101 119 96.5 123.5 Q92 128 90 134.5 Q88 141 86.5 143 Q85 145 85 146 L85 152 L83 156 ZM229 12 Q232 18 231.5 20.5 Q231 23 231 28 L229 53 L228 59 L225 98 Q215 84 209 71 L199 58 Q197 55 196.5 54 Q196 53 196.5 50 Q197 47 198 44 Q199 41 229 12 Z" /><glyph glyph-name="uni5929" unicode="&#x5929;" d="M38 -19 Q52 -26 61 -25 Q70 -25 103 -12.5 Q136 0 158 60 L168 93 Q176 120 177 124 L178 133 Q161 140 148 153 Q146 152 146 153 L131 167 Q116 179 116.5 182 Q117 185 119 186 L128 179 L131 180 Q140 173 143.5 172.5 Q147 172 168 185.5 Q189 199 193 202 Q193 205 192.5 208 Q192 211 193 212 Q193 212 195 218 L197 231 L205 259 Q205 270 207 272.5 Q209 275 214 275.5 Q219 276 223 271 L227 263 Q229 259 237 256 L245 251 L254 249 L258 251 Q261 248 262 249 L266 251 L270 248 Q273 250 280 251 L283 254 L287 254 Q290 249 293 248 L310 241 Q317 237 323.5 229.5 Q330 222 332 215 Q330 213 329 213 L312 215 Q310 215 291 205 L281 201 Q273 197 264 190 Q255 183 252 181 Q249 179 244 177 L241 171 Q240 170 239 168 Q238 166 237.5 164.5 Q237 163 241 160 L248 153 Q249 151 255 139 Q261 127 284.5 99 Q308 71 318 67 L336 60 L339 58 L345 58 Q346 55 348 53.5 Q350 52 359 50.5 Q368 49 397 39.5 Q426 30 447.5 19 Q469 8 479 -3 Q489 -14 491.5 -21.5 Q494 -29 496.5 -32.5 Q499 -36 500 -36 L500 -41 L503 -46 L503 -50 Q491 -50 490 -48 Q482 -53 474 -53 Q466 -54 455.5 -51 Q445 -48 434 -48 L408 -46 L404 -46 L401 -43 L394 -43 L391 -40 L388 -43 Q383 -40 368.5 -39.5 Q354 -39 347.5 -35.5 Q341 -32 336 -31 Q332 -27 330 -25 L324 -23 Q322 -23 317.5 -19 Q313 -15 308 -11 Q303 -7 300.5 -4.5 Q298 -2 291 7 Q284 16 265 35 Q246 54 242 64.5 Q238 75 233 80 Q228 85 229 86 L230 88 Q227 87 225 86 Q223 85 221 74 Q219 63 208.5 33 Q198 3 185.5 -12.5 Q173 -28 149.5 -40.5 Q126 -53 114 -52 L80 -47 Q73 -49 73 -48 Q69 -48 66 -45 L58 -39 L47 -34 Q45 -34 41.5 -29.5 Q38 -25 38 -23 L38 -19 ZM150 329 L151 332 Q158 331 161 330 L168 325 L177 324 Q184 322 188 325 L192 321 L196 324 Q200 324 204 327 Q222 331 234 338 Q246 345 247 346 L255 346 L258 349 L262 349 Q264 350 266 351 L277 353 L284 356 L287 352 L293 352 L296 349 L311 349 Q313 343 319 341 Q325 339 325 338 L322 334 L325 333 L325 329 L331 323 Q326 318 324 318 L312 318 L309 315 L302 315 Q294 307 287 306 Q265 287 254 283.5 Q243 280 241 280.5 Q239 281 236.5 282 Q234 283 234 284 L228 284 L223 285 Q216 282 211 279 Q206 276 206 277 L199 280 Q209 285 217 288 Q217 290 216.5 291 Q216 292 209.5 293 Q203 294 191 304 L170 317 L160 326 L150 329 Z" /><glyph glyph-name="uni4F4D" unicode="&#x4f4d;" d="M190 226 Q187 224 187 223 L186 214 L185 196 L182 193 Q182 190 183 189 L179 150 L178 134 L175 122 L178 113 L175 110 Q174 94 174.5 75.5 Q175 57 175 51 L174 29 Q173 27 174 26 L175 11 Q173 -2 175 -3 L178 -6 Q178 -17 181.5 -28 Q185 -39 184.5 -48.5 Q184 -58 185 -58 L187 -60 Q184 -67 183.5 -67.5 Q183 -68 180.5 -64.5 Q178 -61 172.5 -57 Q167 -53 157.5 -41 Q148 -29 147 -26.5 Q146 -24 145 -16 L139 3 L135 28 L133 38 L133 89 L132 110 Q134 111 134.5 112 Q135 113 135 129 L137 154 L135 157 L132 156 L128 150 L121 147 L122 143 L116 137 Q115 134 114 133 Q110 126 109 123 L99 106 L94 91 L99 84 Q87 80 80 95 Q69 114 68.5 117 Q68 120 68 126.5 Q68 133 68 134 L73 143 Q73 144 74.5 153 Q76 162 87.5 187 Q99 212 120 253 Q141 294 153.5 311.5 Q166 329 166 336 Q165 341 163 342 L159 342 Q158 342 155 345.5 Q152 349 143 353.5 Q134 358 135 359 Q135 359 139 360 Q143 361 150 363.5 Q157 366 160 367 Q167 368 186.5 358 Q206 348 217 338 Q228 328 228 312 Q227 305 225 299.5 Q223 294 218.5 288.5 Q214 283 208.5 271 Q203 259 196.5 250 Q190 241 191 240 L190 226 ZM189 0 Q268 22 296 48 L321 79 L335 92 Q339 96 350.5 109.5 Q362 123 362 124 L361 125 L360 127 Q339 121 319 108 L294 92 Q281 83 270 67 L259 57 Q254 52 253 42 Q244 50 241.5 55 Q239 60 235 71.5 Q231 83 230.5 91 Q230 99 236 111 Q240 121 251 137 Q262 153 265 159 Q268 165 266 167 Q265 167 261 166.5 Q257 166 250 175 Q239 186 239 187 L236 194 Q234 196 234 197 L234 203 L229 208 Q230 216 232.5 231 Q235 246 248 253 Q241 241 241 239 L237 220 Q246 212 249 211.5 Q252 211 263 215 L277 218 L294 226 Q299 227 300 228 L306 232 Q306 232 313 233 L328 238 L340 239 L361 243 Q382 241 385 222.5 Q388 204 386.5 200.5 Q385 197 364 185 L308 153 Q300 148 297 145 L288 131 Q280 121 282 120 L285 115 Q291 119 303 122 L320 131 Q324 132 336.5 134.5 Q349 137 355.5 139.5 Q362 142 369 142 L375 148 Q383 144 396.5 133.5 Q410 123 413 118 Q416 113 416.5 110 Q417 107 411 92.5 Q405 78 402 75 L369 39 Q384 36 396.5 32 Q409 28 411 30 L429 37 Q437 21 440 17.5 Q443 14 453.5 5 Q464 -4 465 -8 Q466 -12 467 -17 L464 -26 L459 -26 L455 -29 Q404 -13 392.5 -10.5 Q381 -8 350 -7 Q342 -7 338 -8 L322 -15 L305 -20 L292 -25 L277 -28 L271 -32 Q269 -33 257 -33 L236 -35 Q231 -36 229 -34 L222 -31 L212 -31 Q201 -31 197 -23 L194 -15 Q189 -5 189 -4 L189 0 ZM286 279 L292 282 Q290 286 289 288 L277 303 Q274 306 273.5 309 Q273 312 273 313 L264 316 L262 333 Q269 334 292 329 Q315 324 328 325.5 Q341 327 349 325 L358 323 Q358 322 361 318 Q364 314 375.5 302.5 Q387 291 385 283 L382 269 Q373 268 370 267 L359 262 L346 263 Q345 263 344 263 Q307 262 282.5 258 Q258 254 263 258 L286 279 Z" /><glyph glyph-name="uni874E" unicode="&#x874e;" d="M45 238 Q55 234 63.5 232 Q72 230 74 230 L94 221 L96 221 L85 235 Q94 229 97 228.5 Q100 228 148 252 Q148 265 150 272 L153 286 L154 295 L156 305 L157 321 Q162 332 144 335 L134 335 L118 343 L114 344 L113 334 Q96 344 98 353 Q100 362 119 363 Q134 363 152.5 352.5 Q171 342 180 324 Q189 306 190 291 Q190 281 188.5 274 Q187 267 188 265 Q188 260 190 258 L204 255 Q208 254 223.5 243 Q239 232 239.5 229 Q240 226 239 217 L239 205 Q238 197 236 193 L212 177 L190 157 L190 153 L212 137 Q187 129 170 116 Q170 111 171 109 L172 107 L171 76 L171 68 L179 69 L180 78 Q182 77 183 77 L188 69 L195 67 Q196 71 196 74 L195 76 Q194 77 191 86 L186 101 Q178 111 179 112 L179 114 Q198 104 212 91 L224 80 Q228 74 230.5 67 Q233 60 234 59 L236 56 Q236 55 235 45 L235 37 Q234 29 226 6 L221 6 Q216 13 213 17 L205 24 L197 32 Q193 30 178.5 25.5 Q164 21 142 8.5 Q120 -4 111 -3 Q97 -3 90 5.5 Q83 14 83 19 L83 26 L80 35 Q79 35 80 36 Q80 42 87 49.5 Q94 57 114 62.5 Q134 68 135 71 L140 81 Q110 91 93.5 107.5 Q77 124 76 184 Q75 185 76 187 L77 199 L75 209 Q74 214 74 215 L60 222 Q59 225 57.5 226.5 Q56 228 50.5 229.5 Q45 231 45 232 Q45 233 45 235 L45 238 ZM100 37 L135 55 Q132 56 130 58.5 Q128 61 117 58 L104 46 Q98 41 99 40 L100 37 ZM115 203 Q114 198 114 196 L116 168 Q116 157 122 154 Q124 158 126 160 L135 167 Q138 170 139 194 L139 210 Q130 206 126.5 206.5 Q123 207 114.5 211 Q106 215 105 214.5 Q104 214 106 212 L115 203 ZM137 92 L139 86 L143 86 Q144 88 144 89 L137 96 L137 92 ZM178 202 L180 203 L199 222 L199 231 Q193 232 186.5 228.5 Q180 225 178 218 Q176 211 177 209 L178 202 ZM245 99 Q240 112 236.5 117.5 Q233 123 233 125 L234 138 L234 145 Q234 146 241.5 154 Q249 162 257.5 175.5 Q266 189 286 209 Q279 219 268 233 Q257 247 255 265 L253 284 Q251 288 251 289 L252 298 L251 310 Q250 313 252 317 Q252 320 253 321 L246 346 L245 359 L249 359 L249 352 L253 356 Q295 316 296 315 L298 303 Q317 307 327.5 310.5 Q338 314 354 308 L359 344 Q354 345 352 344.5 Q350 344 345 342.5 Q340 341 339 341 L309 321 Q295 316 287 331 L274 351 Q278 350 280.5 350.5 Q283 351 299 362 Q315 373 342 373 Q353 372 362.5 367 Q372 362 384.5 348.5 Q397 335 399 331.5 Q401 328 401.5 325 Q402 322 398 312 Q393 302 391.5 294 Q390 286 391 285 L392 275 Q389 273 388.5 272 Q388 271 386.5 263 Q385 255 382 245 L378 233 Q370 215 350 204 L340 203 Q332 202 322 194 L310 184 Q301 178 303 176 L304 174 Q312 179 317 181 L355 192 Q367 196 370 197 L409 183 Q422 179 423.5 178 Q425 177 431 171 L444 157 L454 140 Q446 125 445 119 Q444 113 443.5 107 Q443 101 444 98 L446 87 Q447 80 447 56 L447 26 Q444 -25 425.5 -43.5 Q407 -62 386.5 -72.5 Q366 -83 365 -81 L360 -78 L357 -81 Q323 -76 321 -73 L317 -68 L311 -64 Q305 -58 303.5 -55 Q302 -52 301.5 -43.5 Q301 -35 294 -16 L294 -11 Q288 -16 278 -19 Q268 -22 256 -28 Q244 -34 233 -16 Q230 -13 230 -10 L229 -1 L227 5 Q226 7 234 16 Q240 23 240.5 29.5 Q241 36 241 38 L238 46 L237 62 L235 75 Q235 82 245 99 ZM253 109 Q260 112 268 120 L271 120 Q275 113 278 111 L298 101 L304 95 Q310 99 316 109 L323 120 Q324 122 326 127 Q328 132 328 135 L325 147 Q321 145 320 145 L307 136 Q296 129 266 130 L253 109 ZM269 23 Q275 21 282 24 Q276 35 274.5 40.5 Q273 46 272.5 50.5 Q272 55 276 63 Q277 67 280 70 L297 84 Q297 85 297.5 86.5 Q298 88 297 91 Q295 94 287.5 99.5 Q280 105 277 105 Q273 104 263.5 94 Q254 84 253.5 78 Q253 72 258 63 Q265 44 267 36 L269 23 ZM300 240 L306 241 Q311 237 322.5 246 Q334 255 339 260 Q333 267 330 273 Q321 274 312.5 271.5 Q304 269 296 272 Q294 268 293.5 266.5 Q293 265 295 261 L297 246 L300 240 ZM305 29 Q331 31 361 32 Q363 29 364 28.5 Q365 28 372 26 Q379 24 382 17 L387 4 Q379 -2 375 -1 L369 0 Q365 0 359 -1.5 Q353 -3 348 0 L345 -3 Q336 -4 329 -3.5 Q322 -3 313 -9 Q323 -39 333 -38 L345 -39 Q373 -23 383.5 -8 Q394 7 396 14 L400 30 L404 37 Q405 40 405 43 L404 53 L407 56 Q407 62 408 66 L407 102 Q406 102 407 103 L408 113 L407 131 Q407 134 408.5 139 Q410 144 411 146 L411 154 L415 161 Q415 162 414 164 Q410 170 399 172 L396 175 Q369 173 337 154 Q346 132 348 122 Q350 112 350.5 105 Q351 98 347 90 Q369 79 376.5 68 Q384 57 384 56 L383 52 L380 51 L357 64 Q344 68 340.5 67.5 Q337 67 320.5 50 Q304 33 305 31 L305 29 Z" /><glyph glyph-name="uni87F9" unicode="&#x87f9;" d="M71 266 L73 269 Q73 271 72.5 274 Q72 277 73 278 Q73 279 79 285 Q85 291 90 298 Q95 305 108.5 319.5 Q122 334 127.5 342 Q133 350 136.5 352.5 Q140 355 140.5 356 Q141 357 141 359 Q139 367 126 362 Q127 365 129 367 L136 370 L146 375 Q176 360 177 359 L185 347 L210 347 Q211 345 213 345 L226 337 Q228 335 230.5 331 Q233 327 234.5 322.5 Q236 318 209.5 294.5 Q183 271 182 265 Q191 262 197 267 Q199 267 200.5 268 Q202 269 204 271 Q206 273 211.5 281.5 Q217 290 238.5 315 Q260 340 278.5 353.5 Q297 367 301 368.5 Q305 370 317.5 363.5 Q330 357 334.5 350 Q339 343 340 340 L341 333 Q341 331 370 319 Q370 316 371 316 L376 311 L385 301 Q373 281 360 263 Q360 253 360.5 247 Q361 241 362 240 L366 232 Q383 231 392 236 Q394 233 395.5 230 Q397 227 400 227 Q405 221 407 219 L412 210 Q414 206 419 200.5 Q424 195 423 193 L422 191 Q405 191 404 190 L394 184 L395 191 Q388 190 379 193 L368 192 L360 192 Q355 176 352 169.5 Q349 163 344.5 156.5 Q340 150 336.5 142.5 Q333 135 330 133 Q327 131 328 131 L329 129 L336 131 Q341 128 343 127 L352 114 L367 102 Q372 97 373 93 L374 88 L378 81 L377 78 Q372 72 370 71 L351 64 L323 50 Q315 48 312.5 45.5 Q310 43 318 43 Q320 35 334 25 L333 23 Q342 15 356 0.5 Q370 -14 373 -20.5 Q376 -27 377 -44 L382 -49 Q379 -52 378 -53.5 Q377 -55 375 -68 L373 -85 Q372 -87 364 -79 L352 -72 Q351 -71 351 -70 Q347 -68 347 -70 L346 -66 Q341 -59 340 -50 L337 -47 L337 -41 L336 -39 Q321 -40 316 -36 L315 -39 L296 -39 Q294 -42 293 -42.5 Q292 -43 280 -44 Q268 -45 261.5 -48 Q255 -51 255 -50 L250 -48 Q247 -50 243 -51.5 Q239 -53 231 -56 Q223 -59 206 -66 Q189 -73 179 -73 Q174 -78 170 -73 L152 -73 L149 -76 L145 -73 Q137 -74 130 -70 L120 -46 Q129 -30 138.5 -23 Q148 -16 160 -14.5 Q172 -13 182.5 -12.5 Q193 -12 196 -11.5 Q199 -11 200 -11 L203 -12 L205 -8 L201 -8 Q200 -8 185.5 -2 Q171 4 163 22 Q155 40 154 42 Q153 44 153 45 L152 54 L150 57 Q148 59 148 71 L144 90 Q142 97 143 100 L144 109 L141 112 Q143 125 148 135 Q153 129 154.5 126 Q156 123 158.5 113 Q161 103 163 100 L173 84 Q174 80 179.5 60.5 Q185 41 197 25 Q197 31 202 35 L202 39 L206 41 L209 48 Q223 48 237 61 Q236 63 235.5 65 Q235 67 237 72 Q239 77 238.5 79.5 Q238 82 236 86 L218 80 L214 81 L210 80 L206 83 L194 83 Q187 88 181 90 Q179 94 173 100.5 Q167 107 169 107 Q179 105 192.5 110 Q206 115 207 116 L231 127 L239 130 L239 139 L228 156 Q210 140 197 135 L193 130 Q189 125 182 124 Q166 148 164.5 152.5 Q163 157 164 161 L165 177 L168 180 L168 198 L171 201 L171 210 L174 213 L174 220 Q176 221 177 223 L184 241 L191 250 Q181 252 171 240.5 Q161 229 157 221.5 Q153 214 144 195.5 Q135 177 129.5 166.5 Q124 156 121.5 147 Q119 138 116 134 L116 125 L113 121 Q112 115 109 110 L107 110 Q95 132 92 136 L93 140 Q90 141 88.5 142.5 Q87 144 88 145 L89 148 L85 151 L85 163 Q93 169 94.5 171.5 Q96 174 99.5 182.5 Q103 191 110.5 203 Q118 215 126 231 Q134 247 139.5 255 Q145 263 159 281.5 Q173 300 176 303 L188 315 Q194 323 198 325.5 Q202 328 202 329 L200 332 Q179 330 174 327.5 Q169 325 158 312 L132 283 L131 281 Q109 258 90 226 Q86 228 86 230 L83 238 L77 246 Q75 248 76 251 L76 256 L73 260 L71 266 ZM137 -41 Q140 -44 142 -44 L189 -25 Q194 -25 196 -21 L188 -21 L185 -17 L167 -17 L164 -21 L155 -21 Q143 -32 137 -41 ZM196 183 Q199 183 200 186.5 Q201 190 206.5 196.5 Q212 203 214.5 210 Q217 217 218 221 L217 234 Q217 240 216 241 Q215 242 214 242 Q212 241 210.5 240 Q209 239 207.5 235 Q206 231 201 219.5 Q196 208 196 198 L196 191 Q195 182 196 183 ZM205 6 L208 6 Q208 1 207.5 -1 Q207 -3 208 -3 L210 -7 Q216 -7 219.5 -5.5 Q223 -4 226 -0.5 Q229 3 228.5 8 Q228 13 222 6 L216 6 L213 9 L205 6 ZM250 199 L253 199 Q255 217 261 242 Q267 267 291 289 Q315 311 316.5 312.5 Q318 314 318.5 315 Q319 316 318 319 L314 331 Q311 336 303 347 Q301 345 294.5 344 Q288 343 280 335 L267 324 Q258 316 249 303.5 Q240 291 233.5 281 Q227 271 224.5 267 Q222 263 222.5 261.5 Q223 260 229 255 Q235 250 243.5 238 Q252 226 251 211 L250 199 ZM237 166 Q244 162 246 160.5 Q248 159 258.5 147 Q269 135 274 140 Q270 146 264.5 151.5 Q259 157 260 159 L260 161 Q250 177 251 188 L251 196 Q249 198 248 197 Q248 194 247.5 191.5 Q247 189 246 185.5 Q245 182 237 166 ZM267 -5 L270 -5 Q274 -3 277.5 -2.5 Q281 -2 291.5 -3.5 Q302 -5 322 -3 Q322 -2 322.5 -1.5 Q323 -1 319 2 L311 12 L305 14 L299 18 Q297 16 296 16 L287 15 L270 12 L270 -2 L267 -2 L267 -5 ZM272 85 L274 83 Q294 99 304.5 104.5 Q315 110 315 114 L305 114 L302 110 L293 110 Q290 108 289 108 L278 104 L274 102 L272 85 ZM282 195 L285 192 L285 186 L295 172 Q311 170 312 178 L317 195 Q302 191 293 185 L289 188 Q289 189 288.5 192 Q288 195 285 198 Q287 208 289 217 Q291 226 292 227 L302 240 Q303 240 306 239.5 Q309 239 316 248 L326 259 L328 271 Q325 274 325 276 L325 286 Q323 286 318 281 L312 277 Q310 276 295 256 L291 245 L286 235 L285 223 L282 220 L282 195 ZM350 297 L351 291 L356 297 L356 301 L354 303 L352 303 L352 301 L350 297 Z" /><glyph glyph-name="uni661F" unicode="&#x661f;" d="M70 98 Q74 98 76.5 99 Q79 100 85.5 109 Q92 118 99 123 L109 130 Q110 131 116 139 Q122 147 129 153 L149 168 L153 175 Q154 176 162.5 186 Q171 196 173.5 202 Q176 208 179 211 Q182 214 195 214 L195 218 Q159 255 160 274.5 Q161 294 160 296 L157 299 Q158 303 157.5 305.5 Q157 308 155 312 Q153 316 150 318 L143 320 Q141 320 137 327 Q133 334 118.5 342 Q104 350 106 352 L107 354 Q121 346 127 344 Q133 342 138 342 L156 340 L176 333 Q202 324 204.5 317 Q207 310 208 302 L208 295 Q214 295 217 296 L255 307 Q286 313 293 310 L307 298 L318 293 L320 284 Q310 280 301.5 274.5 Q293 269 275 262 L254 254 Q253 253 252.5 252.5 Q252 252 254 251 Q258 246 265 245 L276 247 Q276 247 278.5 246.5 Q281 246 284.5 247.5 Q288 249 289 250 Q289 250 291 250 L299 248 Q300 248 301 248.5 Q302 249 305 256 L315 268 L319 277 L326 287 Q326 287 329 300 L336 318 L342 339 Q330 347 323 347 Q315 346 288.5 334 Q262 322 243 324 Q233 324 209.5 331 Q186 338 168 353 Q168 354 168.5 354.5 Q169 355 178.5 352 Q188 349 192 349 Q205 348 213 350.5 Q221 353 247.5 366.5 Q274 380 310 376 Q326 374 354 362 Q382 350 387.5 344.5 Q393 339 396.5 330.5 Q400 322 401 320 L396 304 Q395 302 393 289.5 Q391 277 385 266 Q379 255 375 247 Q371 239 356.5 227.5 Q342 216 321.5 209.5 Q301 203 302 199 Q302 197 306 191 Q310 185 311 185 L317 182 L323 176 L331 176 Q331 173 331.5 172 Q332 171 336.5 169.5 Q341 168 342 168 L351 161 L358 157 L362 145 Q359 144 358 145 L325 148 L308 137 Q307 127 307 123 L307 117 L304 99 Q305 96 307.5 95 Q310 94 314 97 Q318 100 319 100 Q319 99 327 96 L340 87 L366 77 Q380 67 374 53 Q370 45 365 41 Q360 37 347 32.5 Q334 28 323 19.5 Q312 11 304.5 6.5 Q297 2 299 0 L300 -3 Q301 -2 303 -1 L320 -4 Q324 -5 336 -1 L344 9 L349 9 L353 12 Q353 11 372 0 L385 -6 Q410 -18 412 -24 Q414 -30 414.5 -41.5 Q415 -53 406 -53 Q404 -54 397 -50 L364 -46 L349 -42 Q347 -42 317 -40 L302 -39 Q300 -39 299 -39 L272 -42 Q250 -43 250 -45 L249 -48 Q227 -54 209 -61 Q191 -68 181.5 -67.5 Q172 -67 159 -56 Q160 -49 159 -47 L153 -40 Q153 -26 160 -21 L177 -17 Q179 -17 189 -11 L209 -1 L228 13 L247 28 L247 35 Q208 48 197.5 61.5 Q187 75 188 81 L187 98 L190 100 Q192 98 193.5 95.5 Q195 93 195 91 L194 87 Q197 84 200 83 L214 77 Q223 71 225 72 L230 74 L237 75 L248 80 L261 84 L261 116 L259 118 Q254 117 251.5 117.5 Q249 118 244.5 119 Q240 120 240 121 L231 121 Q226 121 201 139 Q183 121 173 116 L161 110 L151 103 L137 97 Q135 95 133.5 94 Q132 93 130.5 90 Q129 87 128.5 86 Q128 85 113 77 L99 68 Q76 58 70 59 L70 98 ZM185 192 Q192 181 205 173 L206 158 Q214 153 219 154 Q226 154 235 158 Q244 162 252 164.5 Q260 167 261 168 Q262 169 268 182.5 Q274 196 267.5 202.5 Q261 209 251 209 Q248 208 239.5 207 Q231 206 227 206 Q226 205 226 206 L206 208 L185 196 L185 192 ZM213 268 L219 246 L254 272 L254 275 Q246 272 239 274 Q227 268 214 276 L213 268 ZM228 237 Q243 240 252 246 L249 250 Q238 243 228 237 Z" /><glyph glyph-name="uni7F8A" unicode="&#x7f8a;" d="M92 88 Q92 91 93.5 92 Q95 93 112 100 L125 104 L193 140 L235 164 L163 153 L161 155 L157 155 L151 167 Q156 175 156 183 L156 189 L164 189 L234 231 L234 239 Q214 237 205 233.5 Q196 230 194 230 L173 232 L168 229 Q161 231 159 234 Q157 237 156.5 242.5 Q156 248 157 249 L158 254 Q160 267 160 268 L171 270 L178 273 Q221 291 246 308 Q271 325 295.5 339.5 Q320 354 321 356 L322 363 Q303 367 294.5 366.5 Q286 366 276.5 363 Q267 360 257 357.5 Q247 355 245 354 L231 335 L218 326 L206 315 L178 291 Q169 296 160 297 Q136 318 135 321 L133 332 L131 336 Q138 345 143 349 L154 356 Q196 385 200.5 385.5 Q205 386 208 385.5 Q211 385 233 367 Q280 375 292 375 Q315 374 342 360.5 Q369 347 368 331 Q367 322 358 314 Q349 306 339 302 L318 294 L304 286 L299 285 L299 283 Q304 283 319.5 275 Q335 267 336 270 L338 251 Q325 244 314.5 238 Q304 232 297 229 Q290 226 287.5 223 Q285 220 284.5 217 Q284 214 290 208 Q295 208 300 212 Q313 205 327 202 Q341 199 353 186 Q353 183 352 180 Q351 177 341 173 L323 173 L316 172 Q357 129 372 128 L394 128 L396 125 Q417 118 433 108 L432 106 L437 98 L438 95 Q429 91 423 92 Q396 93 381 95 L361 98 Q356 98 353 97.5 Q350 97 346 98.5 Q342 100 331 97 L308 98 L296 96 L291 28 L286 -12 Q284 -28 283.5 -31 Q283 -34 279.5 -46.5 Q276 -59 274.5 -67.5 Q273 -76 273 -78 L270 -84 L269 -93 L266 -98 Q263 -91 262 -87 L258 -78 Q257 -78 255 -70 Q253 -62 253 -60 L252 -51 L248 -43 L247 -29 L244 -21 L242 -3 L240 5 L239 40 L236 71 L236 83 L231 83 L135 59 L112 59 Q107 62 106 65 L104 69 Q97 78 97 75 L96 83 L92 88 ZM182 110 Q202 112 213.5 115 Q225 118 235 119 L235 137 Q225 140 205.5 126.5 Q186 113 182 110 ZM295 129 L335 128 Q334 132 333.5 133.5 Q333 135 328 139 L315 155 Q299 173 294.5 165.5 Q290 158 290.5 154 Q291 150 293 140 L295 129 Z" /><glyph glyph-name="uni9C7C" unicode="&#x9c7c;" d="M77 -13 L80 -13 Q87 -9 98 -4 L91 -18 Q91 -19 91.5 -19.5 Q92 -20 97 -21 Q102 -22 109 -20.5 Q116 -19 149 -9 Q182 1 204 5 Q226 9 229.5 10.5 Q233 12 237 12.5 Q241 13 244 15 L258 16 Q263 17 268 15 L271 18 Q288 19 295.5 18.5 Q303 18 305 19 L311 20 Q311 20 319 19 L339 18 Q403 2 406 3 Q406 3 409 4.5 Q412 6 415 7 Q417 7 420 6 L431 -6 L441 -11 Q446 -15 456 -36 Q450 -41 444 -40 L418 -39 L401 -34 L386 -33 Q381 -33 373 -29.5 Q365 -26 353.5 -23.5 Q342 -21 342 -20 L338 -15 Q331 -10 323 -10 Q321 -11 314 -13 Q313 -14 299.5 -13 Q286 -12 277 -19 Q270 -20 267 -20.5 Q264 -21 254 -24 L216 -35 Q176 -51 169 -52 L163 -52 L155 -57 L151 -55 Q149 -58 148 -58.5 Q147 -59 128 -60.5 Q109 -62 95 -54.5 Q81 -47 76.5 -38 Q72 -29 73 -26 L77 -13 ZM108 225 Q123 243 133.5 259.5 Q144 276 148 279 L169 304 L216 356 L217 359 Q209 362 204.5 367.5 Q200 373 196 375 Q216 381 222 379 Q228 377 237 371 Q257 364 263 356.5 Q269 349 271 347 L274 341 Q275 338 290 331.5 Q305 325 317 311 Q329 297 328.5 286.5 Q328 276 325.5 273 Q323 270 299.5 260.5 Q276 251 253 238 L237 227 L209 211 L212 208 Q216 211 223 212 Q226 215 227.5 216 Q229 217 232.5 218 Q236 219 261 227 L265 227 Q271 230 277 229 Q278 231 279.5 231.5 Q281 232 284 232.5 Q287 233 309.5 237 Q332 241 354 214.5 Q376 188 378 184 L386 166 L383 163 L383 157 L380 154 L380 142 L377 139 Q376 133 376.5 130 Q377 127 377 126 L375 121 L374 112 Q370 109 368.5 107 Q367 105 361.5 91 Q356 77 346.5 65 Q337 53 320.5 42 Q304 31 299 30 L269 32 Q265 31 258 29.5 Q251 28 243 30 Q234 25 230 25 L221 26 Q220 26 219 26 Q211 25 203 23 Q195 21 192 22 Q186 22 185 26 L200 30 Q188 40 184.5 45.5 Q181 51 171.5 71.5 Q162 92 159.5 101.5 Q157 111 157.5 129.5 Q158 148 159 152 L162 165 Q160 167 159.5 168 Q159 169 161 174 L161 187 Q161 187 165 200 L169 215 Q174 228 183 232 L197 234 Q200 235 214 247 L263 292 L269 295 L270 299 L274 299 L286 312 L232 292 L171 228 Q154 210 148.5 201.5 Q143 193 142 193 L138 191 L137 186 Q127 183 122 188 Q117 193 111.5 203.5 Q106 214 107 217 L108 225 ZM208 76 Q230 94 230 105 L230 110 L206 120 L205 123 L200 123 Q199 118 198.5 112.5 Q198 107 201 98 L205 86 L208 76 ZM202 144 L216 140 L227 144 L228 173 Q217 173 207 181 L204 178 L202 144 ZM219 69 L229 71 L231 78 Q218 73 219 71 L219 69 ZM274 77 Q287 84 297 95.5 Q307 107 308 110 L309 114 Q307 114 289 105 Q271 96 269.5 94 Q268 92 267.5 87 Q267 82 269 81 L274 77 ZM269 162 L273 158 Q281 159 288 157 Q295 155 317 131 Q320 133 320.5 134.5 Q321 136 322 142 L327 164 L329 180 L331 185 L332 199 Q332 200 333.5 203 Q335 206 334.5 208 Q334 210 331 211 Q328 212 315 207 L300 202 L296 196 Q281 192 272 186 Q271 180 271 178 L271 169 L269 162 Z" /><glyph glyph-name="uni6708" unicode="&#x6708;" d="M116 -62 L120 -59 L124 -41 L151 38 L168 114 L184 203 L186 208 Q186 209 187 212 L188 225 Q188 225 193 239 L198 267 L203 298 Q198 295 184.5 296 Q171 297 164.5 299.5 Q158 302 146 313.5 Q134 325 126 331.5 Q118 338 117 342 L120 342 Q123 338 126 336.5 Q129 335 135 333.5 Q141 332 145 329 Q167 332 208 356 Q208 355 208.5 354.5 Q209 354 214 357.5 Q219 361 223 361 L226 363 L233 363 L236 366 L244 366 Q251 370 256 371 L283 370 L315 369 Q353 355 366 339 Q379 323 380 320 Q381 317 381.5 313 Q382 309 376 304 Q370 290 365.5 279 Q361 268 359.5 261.5 Q358 255 358 243 L357 208 L353 205 L356 201 Q354 199 352.5 197.5 Q351 196 352 185.5 Q353 175 350.5 160.5 Q348 146 350 124 Q351 103 353 94 Q355 85 356 85 L359 54 L362 45 Q363 39 364 34 L365 16 L372 -1 L376 -15 L380 -24 L380 -48 L381 -52 Q381 -56 378 -61 Q368 -75 354 -74 Q347 -74 344 -69 L336 -67 L334 -63 Q325 -63 318 -59 Q314 -55 312 -52 L296 -36 Q292 -33 285 -21 L274 -5 L267 9 Q260 23 260 24 L257 33 L249 53 L249 59 Q248 60 248.5 60.5 Q249 61 249 62 Q248 64 246 65 L249 71 Q241 90 241 97 L240 111 Q235 115 233 115 L227 113 L218 113 Q213 107 214 105 L215 101 Q212 95 205 73 L195 45 Q186 19 180 11 Q179 5 178 3.5 Q177 2 172 -4 L162 -21 Q150 -39 143.5 -46 Q137 -53 134 -59 L131 -56 L121 -64 L116 -62 ZM230 164 L233 164 L234 167 Q242 165 252 165.5 Q262 166 263 166 L275 162 Q279 160 286 161 L293 153 Q294 161 294.5 173 Q295 185 296 187 L298 190 L298 225 Q294 224 291.5 224.5 Q289 225 288 225 Q286 224 279 220 L268 215 Q264 213 247.5 201 Q231 189 232 184 L230 164 ZM246 273 L251 268 Q265 269 269 268 Q273 267 281 261 Q289 255 301 254 Q300 258 300 261 L301 284 Q301 295 302 297 L303 300 Q305 307 306.5 313 Q308 319 309 322 L313 332 L316 342 Q296 341 275 336 Q273 334 254.5 323.5 Q236 313 237 313 Q237 312 240.5 309.5 Q244 307 245 297 L245 293 L246 273 ZM243 110 Q242 101 243 98.5 Q244 96 246 92 Q248 88 262.5 55.5 Q277 23 296.5 8 Q316 -7 320 -5 Q314 7 312 15 L306 36 Q305 38 305 40 L304 48 L302 53 Q301 53 301 63 L299 77 Q298 86 298 88 L295 92 Q293 94 295 104 L294 126 Q294 139 293 141 L291 143 Q284 137 280 133 Q275 132 264.5 125.5 Q254 119 246.5 116.5 Q239 114 239.5 113.5 Q240 113 242 111 L243 110 Z" /><glyph glyph-name="uni6218" unicode="&#x6218;" d="M113 157 Q128 168 141 181 Q138 189 138 194 L138 218 L137 234 L138 245 L135 281 Q134 284 135 287 L137 306 Q137 310 137 313 Q136 315 136 317 L122 332 L111 349 Q106 350 108 358 Q110 359 114 357 Q131 342 138 340 L155 335 Q162 332 170 324 Q178 316 181 309 Q184 302 184.5 295.5 Q185 289 185 287 L180 260 L180 240 L184 236 L202 247 L204 256 L208 256 Q209 253 210 252.5 Q211 252 215 252 L220 251 L233 252 L241 249 Q244 241 252 239 Q252 237 251.5 234 Q251 231 240 219 Q229 207 217 201.5 Q205 196 191 204 Q184 196 183 192 L182 177 L176 145 Q182 146 187 146.5 Q192 147 206 143 Q220 139 226 137 Q232 135 234 135 L244 134 Q246 133 259 123.5 Q272 114 275 108.5 Q278 103 279 92 Q280 81 278.5 79 Q277 77 268.5 74.5 Q260 72 221 38 Q227 24 235 17 Q233 15 233.5 14 Q234 13 238 4 Q226 -2 220 -3 L187 -4 L161 -10 L148 -11 L146 -14 Q139 -13 136.5 -11.5 Q134 -10 119 13 L112 23 Q109 27 105.5 35.5 Q102 44 102 49 L101 60 L95 82 Q93 93 93 113 Q93 133 93 139.5 Q93 146 96 155 Q99 164 113 157 ZM128 124 Q145 132 153 135 L153 139 Q142 146 134 158 Q130 159 125 156 Q116 150 115 148 Q114 146 113.5 144.5 Q113 143 113.5 140 Q114 137 116 136 L128 124 ZM136 50 Q146 49 152.5 51 Q159 53 175 69 L219 113 L216 116 Q200 112 193 110 L164 97 Q150 93 146 95.5 Q142 98 137.5 103.5 Q133 109 128 113 Q128 112 127.5 111 Q127 110 129 107.5 Q131 105 134 78 L136 50 ZM194 376 Q192 378 192.5 378.5 Q193 379 194.5 383 Q196 387 198.5 390 Q201 393 226 393 Q227 391 229 391 L253 380 Q266 373 272.5 364.5 Q279 356 282.5 353 Q286 350 287 350 L286 343 Q285 342 295 331 Q297 328 298.5 321 Q300 314 303 307 Q306 300 307 300 L308 290 L319 262 L320 253 L324 250 L341 255 L346 258 Q353 260 359.5 259.5 Q366 259 387 244 Q387 242 387.5 241.5 Q388 241 377 233 L370 227 L364 227 L358 222 L352 221 L349 218 L343 218 Q339 215 338 213 Q337 211 336.5 209 Q336 207 341 196.5 Q346 186 347 182 L348 172 L353 159 Q354 153 356 151 L376 185 Q373 187 372 189 L367 200 L358 203 L358 208 L370 209 L373 206 L378 206 L408 187 Q411 170 410 164.5 Q409 159 409 158 L400 144 L396 136 L391 127 L383 108 Q377 96 377.5 92.5 Q378 89 393 57.5 Q408 26 421.5 -17.5 Q435 -61 438 -64 L454 -94 L449 -98 Q421 -80 391.5 -37 Q362 6 346 46 Q343 45 340.5 45.5 Q338 46 328.5 37.5 Q319 29 302 21.5 Q285 14 281 17 L276 14 L271 19 Q270 24 269.5 29 Q269 34 274 45 Q275 49 277 51 L286 61 Q288 65 289 66 L294 66 L298 72 L310 84 Q310 84 309.5 85 Q309 86 310 87 L322 107 Q321 108 315.5 117.5 Q310 127 294 181 L281 166 L275 166 Q273 163 271 162 Q269 161 241 170 L229 173 L217 181 Q210 183 210 187 Q213 188 217 185 Q220 185 223.5 185.5 Q227 186 228.5 186.5 Q230 187 234 191.5 Q238 196 241 199 L246 203 L260 216 L278 228 L282 232 Q281 238 280 241 L278 244 L277 250 L262 317 Q257 338 248.5 348.5 Q240 359 237 362 L221 370 L215 376 Q213 368 207.5 365 Q202 362 194 376 ZM323 309 Q332 325 348 327 Q361 328 379.5 320 Q398 312 405 306 L413 297 Q422 286 423.5 283.5 Q425 281 425 279 L423 272 L422 255 L407 255 Q399 262 361 291 Q350 292 345 297 Q323 294 323 304 L323 309 Z" /><glyph glyph-name="uni4E89" unicode="&#x4e89;" d="M65 137 Q76 137 82 139 L121 152 Q128 154 143 157 L226 173 Q247 177 249 177 L245 201 Q224 190 201 189 L191 185 L167 181 Q164 184 161.5 187.5 Q159 191 159.5 206 Q160 221 165.5 224 Q171 227 179 229 L203 242 L217 248 L234 267 L250 285 Q204 270 196.5 263.5 Q189 257 188 258 Q182 258 178 270 L169 293 Q174 294 177 295.5 Q180 297 192 313 L234 367 L237 373 Q233 375 231.5 375.5 Q230 376 223 375.5 Q216 375 193 380 L193 385 Q207 389 213.5 392 Q220 395 224 395.5 Q228 396 245 386 Q266 371 270 366 Q274 361 274 355 Q273 352 272 347 Q271 342 262 336 Q261 335 260.5 334 Q260 333 275 330 Q290 327 294.5 325 Q299 323 314 308.5 Q329 294 331 288 Q325 280 322 278 L302 265 L285 252 Q284 251 284.5 249.5 Q285 248 295 249.5 Q305 251 332 244 L361 237 Q362 235 372 225 L388 209 Q395 199 399 183 Q406 182 408 181 Q410 180 415 174 L439 154 Q446 146 452 130 Q440 122 435 122 L412 123 L398 121 L387 123 Q386 123 371 120 L355 118 Q342 115 335 103 L331 104 L328 102 Q335 92 344 85.5 Q353 79 354 78 L356 72 Q348 76 345 77 L324 75 L312 75 L293 69 Q295 43 297 28 Q299 13 298.5 6.5 Q298 0 292.5 -22 Q287 -44 273.5 -53.5 Q260 -63 237 -67.5 Q214 -72 200 -69 Q196 -73 195 -73 L179 -69 L173 -71 L159 -70 L136 -74 L126 -72 L126 -67 Q132 -66 135 -65 Q138 -64 197.5 -24.5 Q257 15 257 36 L258 57 Q244 57 224 46 L197 52 L176 55 Q166 60 165.5 70 Q165 80 168 85 Q169 89 174 93.5 Q179 98 202 110.5 Q225 123 238.5 126.5 Q252 130 250 134 L248 137 L211 130 L137 109 Q112 101 88.5 116 Q65 131 65 135 L65 137 ZM174 75 Q177 72 180 71.5 Q183 71 191 77 Q201 84 250 99 Q245 103 242.5 104.5 Q240 106 208.5 97 Q177 88 174 75 ZM277 202 Q286 186 301.5 184.5 Q317 183 325 189 Q325 189 331.5 197 Q338 205 338 206 L337 210 Q330 211 327 212 L285 205 L276 204 L277 202 ZM308 154 L287 149 Q286 146 287 141 Q288 136 298 142 Q308 148 308 152 L308 154 Z" /><glyph glyph-name="uni5B50" unicode="&#x5b50;" d="M94 -29 L111 -29 L112 -25 Q116 -24 130.5 -22.5 Q145 -21 159 -14 L186 -4 L201 5 L217 12 Q245 24 256.5 49 Q268 74 269 79 L271 92 L274 95 L274 122 L271 125 Q257 118 244 118 L231 118 L206 117 L205 120 Q192 119 187 122 L176 128 L156 132 L157 137 L155 140 Q154 140 155 141 L162 143 L170 148 L175 148 Q179 151 204 162 L226 172 Q260 182 261 183 L265 188 L256 195 Q259 201 260 205 L259 225 L265 232 Q261 245 258.5 254 Q256 263 248.5 274 Q241 285 243 287 L249 296 Q256 284 267 277 Q276 278 283 267 Q302 296 317 313 Q309 315 308.5 315.5 Q308 316 304.5 315 Q301 314 290.5 314.5 Q280 315 258.5 306 Q237 297 215 276 Q193 255 181.5 245.5 Q170 236 165.5 229 Q161 222 157 218 L157 212 Q156 211 142 203 Q133 209 121 220 Q109 231 103 244 Q97 257 96.5 261.5 Q96 266 131 311 L134 311 L142 318 L142 309 Q150 302 151 298 L153 286 L154 285 Q207 316 224.5 324 Q242 332 254 333 Q256 333 258.5 332.5 Q261 332 263 336 Q271 335 277 339 Q298 340 309.5 339 Q321 338 344 326.5 Q367 315 368 299 L373 267 Q370 265 369.5 264 Q369 263 368 256.5 Q367 250 351 234 L336 215 Q329 206 326 198 Q344 198 349 197 L370 187 Q380 183 382 179.5 Q384 176 385 176 L383 165 Q382 164 383 163 L384 158 L384 151 Q378 151 378 146 L368 145 Q363 141 348 140 Q333 139 331 134 Q329 129 330 117 L329 107 L332 104 Q327 98 329 97 L332 92 Q332 78 331.5 73.5 Q331 69 330.5 62 Q330 55 329.5 49.5 Q329 44 329 43 L327 39 Q325 36 326 36 L326 30 L323 27 Q322 22 322 21 L318 12 Q316 7 305 -6 L291 -27 Q288 -30 277.5 -37 Q267 -44 263 -45 Q259 -46 251.5 -46.5 Q244 -47 227 -50 Q210 -53 205 -53 Q201 -54 169.5 -50.5 Q138 -47 136 -45 L131 -42 L110 -40 Q108 -40 104 -38 Q100 -36 94.5 -33.5 Q89 -31 86 -27.5 Q83 -24 84.5 -20.5 Q86 -17 94 -29 Z" /><glyph glyph-name="uni5EA7" unicode="&#x5ea7;" d="M42 -36 L44 -31 L93 41 L144 166 Q159 203 165 213 L178 234 L180 238 Q150 239 141 248 L121 265 Q122 266 124 266.5 Q126 267 134.5 267.5 Q143 268 171 277 L218 292 Q257 304 277 304 L288 317 Q281 317 278 317.5 Q275 318 263 315.5 Q251 313 243 315 L206 328 L198 330 Q197 331 197.5 336 Q198 341 225.5 350 Q253 359 264.5 360 Q276 361 303 348 Q330 335 331 326 L334 304 Q345 302 351.5 302.5 Q358 303 365 298 L383 289 L394 279 Q398 276 399 272 Q391 270 388 269 Q385 268 384 268 Q380 267 366.5 269 Q353 271 300 271 Q274 270 245 257 L245 249 Q236 245 224 232 Q212 219 205 190.5 Q198 162 194 156.5 Q190 151 191 151 L193 146 Q214 172 236 205 L230 212 Q236 214 247 207 Q251 203 263 196 Q275 189 281 175 L274 163 L285 157 Q289 159 293 162 Q297 165 300 173 L299 220 L302 235 Q302 236 301.5 239 Q301 242 301 243 L295 247 L293 243 L285 245 L285 251 Q289 255 296 258 Q330 243 334 235 L346 212 Q353 211 357 211.5 Q361 212 363 212 Q373 211 379 205 Q385 199 389.5 190 Q394 181 395 174.5 Q396 168 396 167 L393 159 Q392 156 408 154 Q417 152 434 141.5 Q451 131 451.5 123.5 Q452 116 439 113 L423 112 Q394 107 384 108 L388 112 Q385 111 380 112 L373 109 Q370 108 369 108 Q368 107 357 110 Q346 113 338 108 Q337 99 338 93 Q339 87 350.5 72.5 Q362 58 364.5 52.5 Q367 47 367.5 43 Q368 39 364 34 Q363 33 354 24 Q345 15 341.5 13 Q338 11 336 9.5 Q334 8 335 0 Q335 -3 339 -12 Q343 -21 362 -1 Q366 -2 368 -2 L380 -13 L395 -20 Q399 -23 415 -37 Q431 -51 428 -53 L416 -66 L411 -59 Q406 -61 404.5 -60.5 Q403 -60 395 -57 Q387 -54 380 -54 Q376 -50 374 -48 L356 -46 L350 -45 Q348 -46 343 -48 Q338 -50 336 -50 Q335 -51 321 -50 L263 -64 Q239 -65 232 -65.5 Q225 -66 220 -59 L213 -49 L204 -40 L202 -29 Q201 -27 199.5 -24.5 Q198 -22 197.5 -21 Q197 -20 200 -17 Q200 -17 207.5 -14 Q215 -11 282 39 Q253 47 233 61.5 Q213 76 215.5 83 Q218 90 225 91 Q227 91 229 90 Q231 89 232 89 L243 79 Q246 75 251 75 L276 81 L299 86 L298 105 L275 106 L290 114 Q273 123 271 127 L258 143 Q244 133 238 117 L231 113 L214 93 Q213 92 203 89 Q193 86 189.5 90.5 Q186 95 180 112 Q177 110 176.5 109.5 Q176 109 174 101 Q172 93 168.5 86.5 Q165 80 159 68 Q153 56 127 21 Q101 -14 84 -21 Q67 -28 46 -42 L42 -36 ZM337 129 L370 142 Q359 153 357 161 L349 184 L346 187 Q338 178 337.5 175.5 Q337 173 337 156 L337 129 Z" /></font>
</defs>
</svg>
